<svg height="512pt" viewBox="0 -30 512.001 512" width="512pt" xmlns="http://www.w3.org/2000/svg">
<path d="m445.175781 0h-243.765625c-111.058594 0-201.410156 90.351562-201.410156 201.410156v48.5c0 53.953125 20.910156 104.574219 58.875 142.539063 37.964844 37.964843 88.585938 58.875 142.539062 58.875 111.058594 0 201.410157-90.351563 201.410157-201.410157v-25.414062c0-23.351562 19-42.351562 42.351562-42.351562 36.847657 0 66.824219-29.980469 66.824219-66.824219v-48.5c0-36.847657-29.976562-66.824219-66.824219-66.824219zm-243.765625 15.058594h243.765625c28.542969 0 51.765625 23.222656 51.765625 51.765625s-23.222656 51.765625-51.765625 51.765625c-31.65625 0-57.410156 25.753906-57.410156 57.410156v25.414062c0 102.753907-83.597656 186.351563-186.355469 186.351563-49.925781 0-96.765625-19.339844-131.886718-54.460937-35.125-35.125-54.464844-81.964844-54.464844-131.894532 0-102.753906 83.597656-186.351562 186.351562-186.351562zm182.886719 270.679687c-4.1875 21.398438-12.039063 41.496094-22.886719 59.609375v-21.75c8.945313-11.683594 16.640625-24.367187 22.886719-37.859375zm-263.828125 100.3125v31.925781c-7.800781-3.746093-15.347656-8.039062-22.585938-12.878906v-30.675781c7.285157 4.367187 14.832032 8.242187 22.585938 11.628906zm15.0625 5.855469c7.378906 2.53125 14.914062 4.636719 22.585938 6.300781v33.054688c-7.691407-1.8125-15.230469-4.101563-22.585938-6.859375zm37.644531 8.964844c7.441407 1.03125 14.976563 1.664062 22.589844 1.871094v33.429687c-7.621094-.222656-15.160156-.894531-22.589844-2.007813zm37.648438 1.726562c7.648437-.355468 15.183593-1.140625 22.585937-2.324218v33.234374c-7.390625 1.285157-14.925781 2.136719-22.585937 2.519532zm37.644531-5.339844c7.710938-1.851562 15.25-4.140624 22.589844-6.855468v32.347656c-7.3125 2.957031-14.851563 5.46875-22.589844 7.488281zm37.648438-13.140624c7.8125-3.636719 15.355468-7.757813 22.589843-12.328126v30.402344c-7.175781 5.070313-14.71875 9.652344-22.589843 13.6875zm-240.941407-55.3125v23.027343c-13.003906-19.902343-22.015625-42.0625-26.601562-65.480469 7.003906 15.113282 15.90625 29.367188 26.601562 42.453126zm15.058594 43.011718v-26.539062c7.117187 6.988281 14.664063 13.382812 22.589844 19.160156v29.449219c-4.59375-3.792969-9.035157-7.820313-13.300781-12.085938-3.234376-3.230469-6.328126-6.5625-9.289063-9.984375zm263.53125 18.535156v-29.066406c8.023437-6.160156 15.578125-12.902344 22.585937-20.171875v25.785157c-6.839843 8.457031-14.394531 16.308593-22.585937 23.453124zm79.058594-204.566406v-9.785156c0-14.1875 7.019531-26.757812 17.757812-34.445312v31.082031c-6.746093 3.210937-12.769531 7.695312-17.757812 13.148437zm32.816406-17.890625v-33.152343c3.066406-.707032 6.253906-1.09375 9.535156-1.09375 4.84375 0 9.566407-.53125 14.117188-1.515626v32.980469c-4.492188 1.277344-9.222657 1.972657-14.117188 1.972657-3.25.003906-6.433593.289062-9.535156.808593zm61.300781-52.570312c0 17.726562-8.960937 33.398437-22.589844 42.730469v-31.125c8.773438-4.277344 16.476563-10.417969 22.589844-17.902344zm0 0"/><path d="m384 114.824219c22.835938 0 41.410156-18.578125 41.410156-41.410157 0-22.835937-18.574218-41.414062-41.410156-41.414062s-41.410156 18.578125-41.410156 41.414062c0 22.832032 18.574218 41.410157 41.410156 41.410157zm0-15.058594c-8.089844 0-15.335938-3.667969-20.175781-9.425781 4.945312-5.898438 12.261719-9.398438 20.175781-9.398438 7.824219 0 15.203125 3.523438 20.164062 9.410156-4.835937 5.75-12.078124 9.414063-20.164062 9.414063zm0-52.707031c14.53125 0 26.351562 11.824218 26.351562 26.355468 0 .644532-.03125 1.285157-.074218 1.917969-7.3125-5.992187-16.574219-9.449219-26.277344-9.449219-9.796875 0-19.011719 3.410157-26.28125 9.386719-.042969-.613281-.070312-1.230469-.070312-1.855469 0-14.535156 11.820312-26.355468 26.351562-26.355468zm0 0"/><path d="m203.296875 367.058594h.316406c44.074219-.082032 85.589844-17.4375 116.898438-48.863282 31.308593-31.425781 48.503906-73.007812 48.429687-117.082031-.011718-6.46875-.402344-12.992187-1.160156-19.378906-1.308594-11.035156-6.917969-20.84375-15.796875-27.609375-9.039063-6.890625-20.222656-9.746094-31.496094-8.042969-3.804687.574219-7.703125.816407-11.589843.71875-35.429688-.886719-64.230469-30.460937-64.195313-65.921875.003906-.683594.015625-1.367187.035156-2.042968.359375-11.5-3.808593-22.34375-11.742187-30.535157-7.824219-8.078125-18.339844-12.53125-29.609375-12.535156-.785157 0-1.570313.003906-2.359375.011719-5.835938.082031-11.601563.472656-17.28125 1.144531l-.199219-.199219-.261719.257813c-82.015625 9.984375-145.890625 80.542969-145.636718 164.9375.273437 91.125 74.550781 165.140625 165.648437 165.140625zm.289063-15.058594c-.101563 0-.1875 0-.289063 0-2.640625 0-5.261719-.070312-7.871094-.207031l158.238281-158.238281c.132813 2.527343.210938 5.0625.214844 7.585937.015625 8-.609375 15.90625-1.824218 23.671875l-125.363282 125.367188c-7.582031 1.1875-15.296875 1.804687-23.105468 1.820312zm106.257812-44.433594c-15.683594 15.742188-34.183594 27.589844-54.328125 35.082032l89.007813-89.007813c-7.425782 19.96875-19.136719 38.324219-34.679688 53.925781zm40.644531-132.128906-174.140625 174.140625c-8.035156-1.460937-15.851562-3.566406-23.394531-6.253906l181.527344-181.523438c2.984375.90625 5.816406 2.347657 8.375 4.296875 3.3125 2.527344 5.894531 5.71875 7.632812 9.339844zm-37.328125-13.613281-175.222656 175.222656c-6.546875-3.167969-12.828125-6.796875-18.808594-10.839844l167.894532-167.894531c6.839843 2.113281 14.042968 3.355469 21.5 3.542969 1.542968.039062 3.089843.019531 4.636718-.03125zm-41.09375-9.847657-165.082031 165.082032c-5.375-4.484375-10.4375-9.332032-15.140625-14.507813l163.101562-163.105469c5.125 4.882813 10.878907 9.101563 17.121094 12.53125zm-189.824218 138.878907c-4.253907-5.742188-8.113282-11.792969-11.527344-18.117188l163.957031-163.960937c2.574219 6.914062 6.070313 13.402344 10.34375 19.304687zm148.160156-199.101563-166.527344 166.527344c-2.960938-7.222656-5.382812-14.71875-7.199219-22.449219l170.277344-170.277343c1.925781 3.910156 2.878906 8.277343 2.734375 12.808593-.023438.828125-.039062 1.660157-.039062 2.496094-.003907 3.691406.265624 7.324219.753906 10.894531zm-29.171875-40.917968c.683593-.007813 1.363281-.011719 2.046875-.011719h.101562c4.792969 0 9.367188 1.273437 13.359375 3.648437l-163.160156 163.160156c-.558594-5.179687-.855469-10.4375-.871094-15.757812-.015625-4.582031.191407-9.117188.585938-13.597656l136.875-136.878906c3.652343-.320313 7.339843-.511719 11.0625-.5625zm-36.9375 5.140624-106.40625 106.40625c13.945312-51.550781 54.761719-92.464843 106.40625-106.40625zm0 0"/><path d="m286.117188 35.765625h15.058593v15.058594h-15.058593zm0 0"/><path d="m271.058594 50.824219h15.058594v15.058593h-15.058594zm0 0"/><path d="m301.175781 96h15.058594v15.058594h-15.058594zm0 0"/><path d="m361.410156 133.648438h15.058594v15.058593h-15.058594zm0 0"/><path d="m459.292969 65.882812h15.058593v15.058594h-15.058593zm0 0"/><path d="m429.175781 28.234375h15.058594v15.058594h-15.058594zm0 0"/></svg>