<svg width="64" height="64" xmlns="http://www.w3.org/2000/svg">
 <title/>

 <g>
  <title>background</title>
  <rect fill="none" id="canvas_background" height="402" width="582" y="-1" x="-1"/>
 </g>
 <g>
  <title>Layer 1</title>
  <path id="svg_1" fill="none" stroke="#000" stroke-linejoin="round" stroke-width="2px" d="m62,51.84l0,3c0,2.3 -13.43,6.16 -30,6.16s-30,-3.86 -30,-6.11l0,-3c0,-6.65 5.06,-12.79 13,-16.27a58.71,58.71 0 0 1 1,10.17a2,2 0 1 0 4,0a61.11,61.11 0 0 0 -1,-11.19a42.1,42.1 0 0 1 10,-1.6a51.6,51.6 0 0 1 2,14.77a2,2 0 1 0 4,0a54.37,54.37 0 0 0 -2,-14.77c3.8,0.09 7.51,0.15 10.82,1.07a56.38,56.38 0 0 1 1.18,11.67a2,2 0 1 0 4,0a60.47,60.47 0 0 0 -1,-10.17c8.31,3.43 14,9.43 14,16.27z"/>
  <path stroke="#000" id="svg_2" fill="none" stroke-linecap="round" stroke-linejoin="round" stroke-width="2px" d="m32.97633,9.722295c0,4.166907 -3.122569,4.166907 -3.122569,8.342017s3.122569,4.166907 3.122569,8.342017"/>
  <path id="svg_3" fill="none" stroke="#000" stroke-linecap="round" stroke-linejoin="round" stroke-width="2px" d="m15.632295,15.073761c0,0.5 -4,4.32 -4,8.14c0,4.08 4,4.07 4,8.14"/>
  <path id="svg_4" fill="none" stroke="#000" stroke-linecap="round" stroke-linejoin="round" stroke-width="2px" d="m50.098898,14.648716c0,0.49 -4,4.32 -4,8.13c0,4.08 4,4.07 4,8.14"/>
 </g>
</svg>