<svg id="svg" version="1.1" xmlns="http://www.w3.org/2000/svg" xmlns:xlink="http://www.w3.org/1999/xlink" width="400" height="400" viewBox="0, 0, 400,400"><g id="svgg"><path id="path0" d="M97.800 107.041 C 94.011 108.150,92.391 108.861,92.659 109.296 C 92.815 109.548,92.735 109.607,92.465 109.440 C 91.278 108.707,84.694 115.258,85.427 116.444 C 85.608 116.736,85.554 116.819,85.291 116.656 C 85.046 116.505,84.749 116.781,84.608 117.294 C 84.471 117.792,84.027 119.010,83.622 120.000 C 82.192 123.492,81.647 125.040,80.448 129.000 C 79.783 131.200,78.058 136.420,76.616 140.600 C 75.175 144.780,73.443 149.910,72.769 152.000 C 72.095 154.090,71.286 156.278,70.972 156.862 C 70.657 157.446,70.399 158.256,70.398 158.662 C 70.396 159.068,70.151 159.867,69.853 160.439 C 69.555 161.010,68.722 163.440,68.001 165.839 C 67.281 168.237,66.545 170.387,66.367 170.616 C 66.188 170.844,65.863 171.744,65.644 172.616 C 65.425 173.487,64.946 175.100,64.580 176.200 C 63.982 177.996,63.578 179.124,61.784 184.000 C 61.209 185.562,60.243 188.480,59.400 191.200 C 58.441 194.293,57.541 196.968,57.177 197.800 C 56.752 198.774,55.380 202.747,54.622 205.200 C 54.315 206.190,52.871 210.420,51.412 214.600 C 49.953 218.780,48.601 222.740,48.407 223.400 C 48.213 224.060,47.780 225.320,47.445 226.200 C 47.109 227.080,46.827 228.194,46.818 228.676 C 46.808 229.158,46.625 229.661,46.411 229.793 C 46.197 229.926,45.830 230.791,45.596 231.717 C 45.362 232.643,44.922 234.030,44.619 234.800 C 44.031 236.295,43.102 239.072,42.209 242.000 C 41.907 242.990,41.186 245.060,40.607 246.600 C 40.027 248.140,39.303 250.210,38.998 251.200 C 38.062 254.233,37.144 256.960,36.777 257.800 C 36.327 258.832,34.932 262.891,34.234 265.200 C 33.614 267.252,33.000 268.985,31.939 271.674 C 31.533 272.705,31.199 273.875,31.198 274.274 C 31.196 274.673,30.954 275.462,30.659 276.027 C 30.365 276.591,29.997 277.581,29.843 278.227 C 29.689 278.872,29.232 280.300,28.829 281.400 C 27.763 284.305,27.201 285.968,26.599 288.000 C 26.305 288.990,25.448 291.510,24.694 293.600 C 21.342 302.894,22.000 307.733,27.075 311.102 L 29.331 312.600 47.365 312.600 L 65.400 312.600 68.405 311.127 C 73.065 308.843,76.579 304.829,77.974 300.200 C 78.239 299.320,78.617 298.240,78.814 297.800 C 79.242 296.844,80.615 292.909,81.397 290.400 C 82.398 287.186,83.266 284.617,83.625 283.800 C 83.819 283.360,84.888 280.210,86.000 276.800 C 87.112 273.390,88.194 270.240,88.402 269.800 C 89.058 268.419,90.800 262.732,90.800 261.973 C 90.800 261.574,90.975 261.139,91.189 261.007 C 91.403 260.874,91.766 260.009,91.995 259.083 C 92.225 258.157,92.676 256.860,92.997 256.200 C 93.318 255.540,93.755 254.280,93.968 253.400 C 94.459 251.370,95.521 248.153,96.213 246.600 C 96.738 245.423,97.500 243.180,98.591 239.600 C 98.893 238.610,99.614 236.540,100.195 235.000 C 100.775 233.460,101.429 231.480,101.648 230.600 C 102.267 228.112,102.675 228.133,102.989 230.670 C 103.148 231.951,103.530 233.607,103.839 234.349 C 104.148 235.091,104.400 236.176,104.400 236.762 C 104.400 237.347,104.674 238.810,105.008 240.013 C 105.342 241.216,105.803 243.421,106.031 244.914 C 106.259 246.407,106.705 248.365,107.023 249.265 C 107.340 250.164,107.600 251.379,107.600 251.963 C 107.600 252.548,107.882 254.010,108.227 255.213 C 108.572 256.416,109.027 258.633,109.239 260.140 C 109.450 261.648,109.888 263.515,110.212 264.289 C 110.535 265.064,110.806 266.441,110.813 267.349 C 110.820 268.257,111.174 269.990,111.600 271.200 C 112.026 272.410,112.380 274.079,112.387 274.910 C 112.394 275.740,112.760 277.444,113.200 278.696 C 113.640 279.948,114.000 281.647,114.000 282.472 C 114.000 283.297,114.255 284.743,114.567 285.686 C 114.879 286.629,115.334 288.726,115.578 290.347 C 115.822 291.967,116.193 293.613,116.402 294.005 C 116.612 294.396,116.904 295.770,117.052 297.058 C 117.200 298.346,117.563 300.098,117.860 300.950 C 118.157 301.803,118.400 303.018,118.400 303.650 C 118.400 304.283,118.592 304.800,118.827 304.800 C 119.062 304.800,119.148 305.135,119.018 305.544 C 118.731 306.447,119.148 307.680,119.637 307.377 C 119.832 307.257,119.888 307.427,119.762 307.756 C 119.395 308.711,122.845 311.890,124.665 312.275 C 125.509 312.454,134.390 312.600,144.400 312.600 L 162.600 312.600 165.563 311.063 C 170.265 308.625,174.082 304.182,175.240 299.800 C 175.414 299.140,176.387 296.260,177.402 293.400 C 178.417 290.540,179.494 287.390,179.795 286.400 C 180.096 285.410,181.538 281.180,182.999 277.000 C 184.460 272.820,185.799 268.860,185.976 268.200 C 186.153 267.540,186.563 266.280,186.887 265.400 C 188.039 262.274,189.968 256.565,190.737 254.000 C 190.968 253.230,191.630 251.340,192.208 249.800 C 192.787 248.260,193.507 246.190,193.809 245.200 C 194.696 242.290,195.647 239.459,196.026 238.600 C 196.221 238.160,196.925 236.090,197.592 234.000 C 198.259 231.910,198.988 229.881,199.211 229.491 C 199.984 228.144,200.171 213.218,199.457 209.929 C 192.204 176.528,189.021 162.049,187.997 157.800 C 187.784 156.920,187.153 154.040,186.594 151.400 C 186.035 148.760,185.222 145.025,184.789 143.100 C 183.571 137.696,182.477 132.760,182.113 131.028 C 181.876 129.900,181.447 129.259,180.592 128.757 C 178.071 127.279,177.831 127.553,175.633 134.400 C 174.255 138.691,169.930 151.276,169.309 152.800 C 169.085 153.350,168.768 154.430,168.605 155.200 C 168.441 155.970,168.158 156.787,167.975 157.016 C 167.792 157.244,167.462 158.144,167.242 159.016 C 166.843 160.598,164.554 167.536,163.125 171.494 C 162.345 173.657,161.253 176.759,160.414 179.200 C 160.149 179.970,159.687 181.410,159.387 182.400 C 156.333 192.485,155.743 193.082,154.798 187.042 C 154.560 185.525,154.214 183.995,154.029 183.642 C 153.844 183.289,153.571 182.010,153.422 180.800 C 153.274 179.590,152.913 177.700,152.620 176.600 C 152.060 174.491,151.158 170.201,150.224 165.200 C 149.916 163.550,149.484 161.660,149.264 161.000 C 149.044 160.340,148.749 158.825,148.609 157.633 C 148.469 156.441,148.095 154.844,147.777 154.084 C 147.460 153.324,147.200 152.134,147.200 151.438 C 147.200 150.743,146.918 149.190,146.573 147.987 C 146.228 146.784,145.773 144.567,145.561 143.060 C 145.350 141.552,144.912 139.685,144.588 138.911 C 144.265 138.136,144.000 136.800,144.000 135.941 C 144.000 135.083,143.640 133.356,143.200 132.104 C 142.760 130.852,142.400 129.141,142.400 128.301 C 142.400 127.462,142.062 125.745,141.649 124.487 C 141.236 123.229,140.789 121.210,140.656 120.000 C 139.920 113.326,135.483 106.638,132.540 107.768 C 132.220 107.890,132.056 107.834,132.174 107.642 C 133.002 106.302,102.166 105.763,97.800 107.041 " stroke="none" fill="#222322" fill-rule="evenodd"></path><path id="path1" d="M366.000 63.630 C 362.324 64.539,359.938 65.576,360.273 66.118 C 360.411 66.341,360.330 66.404,360.093 66.257 C 359.730 66.033,354.827 68.761,351.200 71.204 C 349.757 72.177,343.100 76.379,339.600 78.527 C 337.950 79.539,335.070 81.340,333.200 82.528 C 331.330 83.715,327.241 86.270,324.114 88.205 C 320.987 90.139,318.540 91.902,318.676 92.123 C 318.815 92.347,318.723 92.400,318.469 92.243 C 317.929 91.909,315.075 93.742,315.490 94.157 C 315.647 94.314,315.487 94.332,315.135 94.196 C 314.272 93.865,308.963 98.894,309.411 99.618 C 309.594 99.914,309.562 100.024,309.333 99.882 C 309.118 99.750,308.344 100.757,307.611 102.120 C 306.165 104.814,305.294 111.200,306.373 111.200 C 306.634 111.200,306.729 111.391,306.585 111.624 C 306.214 112.225,307.207 114.443,307.708 114.133 C 307.937 113.992,308.005 114.068,307.859 114.304 C 307.441 114.981,309.525 117.151,311.856 118.466 L 313.987 119.669 311.316 124.734 C 307.590 131.800,307.243 132.547,307.499 132.959 C 307.622 133.160,307.515 133.194,307.259 133.036 C 306.990 132.870,306.679 133.055,306.521 133.475 C 306.275 134.129,300.497 144.943,299.616 146.400 C 299.416 146.730,298.641 148.170,297.892 149.600 C 294.583 155.924,292.192 160.369,290.940 162.530 C 290.198 163.812,289.710 165.054,289.857 165.292 C 290.028 165.568,289.933 165.606,289.594 165.396 C 289.197 165.151,289.136 165.258,289.353 165.822 C 289.512 166.237,289.513 166.446,289.355 166.288 C 289.076 166.009,288.415 167.100,284.806 173.800 C 283.858 175.560,281.913 179.160,280.484 181.800 C 279.055 184.440,277.172 187.950,276.300 189.600 C 275.427 191.250,274.537 192.817,274.322 193.082 C 274.107 193.348,274.064 193.781,274.227 194.044 C 274.428 194.369,274.353 194.418,273.994 194.196 C 273.597 193.951,273.536 194.058,273.753 194.622 C 273.912 195.037,273.911 195.244,273.750 195.083 C 273.470 194.804,272.740 196.020,269.115 202.800 C 268.233 204.450,266.979 206.743,266.329 207.895 C 265.665 209.071,265.274 210.212,265.438 210.495 C 265.597 210.773,265.579 210.865,265.397 210.699 C 265.050 210.385,264.378 211.449,261.195 217.349 C 259.111 221.211,258.769 221.262,258.218 217.793 C 257.898 215.781,256.606 209.628,255.573 205.200 C 255.136 203.330,254.784 201.384,254.790 200.876 C 254.796 200.279,254.637 200.053,254.338 200.238 C 254.044 200.420,253.985 200.347,254.176 200.038 C 254.341 199.772,254.196 198.439,253.853 197.077 C 253.511 195.714,253.122 193.742,252.990 192.692 C 252.834 191.462,252.594 190.880,252.313 191.054 C 252.066 191.207,251.990 191.140,252.138 190.900 C 252.282 190.667,252.036 188.704,251.591 186.538 C 251.146 184.372,250.525 181.340,250.211 179.800 C 248.321 170.529,247.568 167.389,247.204 167.268 C 246.979 167.193,246.893 166.973,247.013 166.779 C 247.394 166.162,246.730 162.396,246.288 162.669 C 246.054 162.814,245.997 162.728,246.157 162.470 C 246.311 162.221,246.264 161.338,246.052 160.508 C 245.840 159.679,245.282 157.020,244.811 154.600 C 244.340 152.180,243.605 148.828,243.178 147.152 C 242.750 145.475,242.400 143.670,242.400 143.139 C 242.400 142.608,242.128 141.190,241.796 139.987 C 241.465 138.784,241.006 136.720,240.779 135.400 C 240.551 134.080,240.195 132.460,239.989 131.800 C 239.782 131.140,239.414 129.294,239.170 127.699 C 238.886 125.839,238.575 124.892,238.302 125.061 C 238.068 125.205,237.983 125.151,238.113 124.940 C 238.409 124.462,237.461 118.673,237.140 118.994 C 237.011 119.122,236.987 118.800,237.087 118.277 C 237.191 117.737,237.003 117.060,236.654 116.711 C 236.315 116.372,236.131 116.002,236.245 115.888 C 238.336 113.797,230.038 105.951,226.314 106.498 C 225.701 106.588,225.200 106.513,225.200 106.331 C 225.200 106.149,218.990 106.000,211.400 106.000 C 203.810 106.000,197.600 106.155,197.600 106.345 C 197.600 106.534,197.155 106.604,196.611 106.500 C 195.361 106.261,189.522 108.350,189.870 108.913 C 190.017 109.152,189.927 109.202,189.654 109.033 C 188.404 108.261,182.139 114.519,181.180 117.498 C 180.914 118.324,180.555 119.180,180.383 119.400 C 180.085 119.782,179.215 123.457,179.089 124.871 C 179.056 125.239,178.887 125.454,178.714 125.347 C 178.541 125.240,178.400 125.433,178.400 125.776 C 178.400 126.119,178.550 126.400,178.733 126.400 C 178.917 126.400,179.067 126.667,179.067 126.994 C 179.067 127.443,178.937 127.480,178.533 127.145 C 178.126 126.807,178.000 126.856,178.000 127.351 C 178.000 127.708,178.315 128.013,178.700 128.029 C 180.261 128.094,181.777 129.426,182.113 131.028 C 182.477 132.760,183.571 137.696,184.789 143.100 C 185.222 145.025,186.035 148.760,186.594 151.400 C 187.153 154.040,187.784 156.920,187.997 157.800 C 189.021 162.049,192.202 176.518,199.457 209.929 C 199.975 212.315,200.048 214.369,199.850 221.007 C 199.716 225.490,199.761 229.252,199.949 229.369 C 200.138 229.485,200.207 230.027,200.103 230.572 C 199.999 231.117,200.189 232.516,200.526 233.681 C 200.862 234.847,201.415 237.328,201.755 239.195 C 202.094 241.063,202.539 242.646,202.744 242.715 C 202.948 242.783,203.034 243.150,202.934 243.531 C 202.760 244.198,203.157 246.273,204.863 253.600 C 205.298 255.470,205.750 257.765,205.867 258.700 C 205.985 259.635,206.226 260.400,206.403 260.400 C 206.580 260.400,206.631 260.760,206.516 261.199 C 206.401 261.638,206.598 262.887,206.954 263.974 C 207.309 265.061,207.600 266.321,207.600 266.775 C 207.600 267.229,207.763 267.600,207.963 267.600 C 208.162 267.600,208.237 267.937,208.129 268.348 C 208.022 268.760,208.136 269.795,208.383 270.648 C 208.630 271.502,209.090 273.640,209.406 275.400 C 209.722 277.160,210.154 279.320,210.366 280.200 C 210.579 281.080,211.130 283.600,211.592 285.800 C 213.679 295.739,214.082 297.605,214.827 300.800 C 215.264 302.670,215.616 304.583,215.610 305.051 C 215.595 306.344,216.748 308.865,217.937 310.136 C 220.051 312.395,220.818 312.587,228.400 312.757 C 249.160 313.224,255.364 313.236,258.086 312.814 C 261.138 312.340,265.732 310.537,265.371 309.954 C 265.254 309.764,265.409 309.705,265.714 309.823 C 266.431 310.097,271.687 304.804,271.412 304.086 C 271.300 303.796,271.358 303.650,271.540 303.763 C 272.018 304.058,273.704 300.892,273.363 300.340 C 273.195 300.069,273.251 299.984,273.495 300.135 C 273.730 300.280,274.283 299.646,274.750 298.697 C 275.209 297.764,276.364 295.560,277.316 293.800 C 278.268 292.040,279.825 289.160,280.776 287.400 C 281.727 285.640,282.914 283.480,283.413 282.600 C 285.704 278.564,286.769 276.274,286.533 275.892 C 286.392 275.663,286.445 275.580,286.651 275.708 C 286.856 275.835,287.559 274.924,288.212 273.684 C 288.866 272.444,290.082 270.201,290.915 268.701 C 291.748 267.200,292.305 265.770,292.153 265.524 C 291.997 265.272,292.055 265.187,292.286 265.329 C 292.511 265.469,293.144 264.732,293.692 263.691 C 294.239 262.651,295.815 259.640,297.193 257.000 C 298.571 254.360,299.972 251.761,300.307 251.225 C 300.642 250.689,301.583 248.979,302.398 247.425 C 303.212 245.871,304.270 243.913,304.747 243.074 C 305.225 242.235,305.494 241.352,305.346 241.112 C 305.198 240.873,305.245 240.780,305.451 240.908 C 305.656 241.035,306.359 240.122,307.012 238.878 C 307.666 237.635,308.760 235.623,309.445 234.409 C 310.129 233.194,311.409 230.850,312.289 229.200 C 315.606 222.980,316.915 220.564,317.596 219.400 C 317.982 218.740,319.158 216.580,320.208 214.600 C 322.465 210.347,323.899 207.703,325.364 205.091 C 325.954 204.041,326.309 202.961,326.154 202.691 C 325.999 202.421,326.023 202.337,326.207 202.505 C 326.632 202.890,329.263 198.026,328.926 197.480 C 328.789 197.258,328.855 197.187,329.073 197.322 C 329.292 197.457,330.332 195.910,331.384 193.884 C 332.437 191.858,333.431 190.020,333.594 189.800 C 333.867 189.432,334.992 187.361,338.701 180.400 C 340.712 176.626,342.594 173.171,345.285 168.311 C 346.628 165.887,347.534 163.816,347.369 163.549 C 347.204 163.284,347.247 163.182,347.466 163.317 C 347.680 163.450,348.881 161.632,350.133 159.279 C 351.386 156.926,353.144 153.650,354.040 152.000 C 356.928 146.682,359.739 141.446,360.698 139.600 C 361.213 138.610,362.073 137.013,362.610 136.050 C 363.147 135.088,363.471 134.115,363.331 133.889 C 363.173 133.632,363.276 133.600,363.606 133.804 C 363.994 134.044,364.065 133.947,363.873 133.445 C 363.728 133.067,363.762 132.853,363.949 132.968 C 364.136 133.084,364.608 132.469,364.999 131.603 L 365.709 130.028 368.554 130.112 C 371.873 130.210,375.316 129.711,374.987 129.179 C 374.861 128.976,374.993 128.891,375.279 128.992 C 376.012 129.249,381.024 126.589,380.890 126.014 C 380.830 125.754,380.958 125.651,381.176 125.785 C 381.793 126.166,385.746 122.166,385.379 121.532 C 385.210 121.239,385.214 121.129,385.389 121.286 C 385.843 121.696,387.276 119.740,387.343 118.620 C 387.375 118.101,387.526 117.755,387.681 117.850 C 388.164 118.149,389.200 113.958,389.200 111.704 C 389.200 110.521,389.065 109.636,388.900 109.738 C 388.735 109.840,388.590 109.446,388.577 108.862 C 388.548 107.483,387.688 102.108,386.966 98.800 C 386.654 97.370,386.219 94.758,385.999 92.996 C 385.779 91.233,385.419 89.165,385.200 88.398 C 384.980 87.632,384.800 86.419,384.800 85.703 C 384.800 84.986,384.645 84.400,384.455 84.400 C 384.266 84.400,384.190 83.986,384.287 83.479 C 384.384 82.973,384.179 81.462,383.831 80.121 C 383.484 78.781,383.200 77.126,383.200 76.442 C 383.200 75.759,383.051 75.200,382.869 75.200 C 382.687 75.200,382.611 74.704,382.700 74.098 C 383.122 71.224,378.397 64.255,376.516 64.977 C 376.209 65.095,376.065 65.018,376.196 64.807 C 376.326 64.596,375.930 64.306,375.316 64.162 C 374.702 64.018,373.217 63.653,372.016 63.350 C 369.454 62.705,369.806 62.688,366.000 63.630 " stroke="none" fill="#faa01e" fill-rule="evenodd"></path></g></svg>