

<svg id="svg" version="1.1" xmlns="http://www.w3.org/2000/svg" xmlns:xlink="http://www.w3.org/1999/xlink" width="400" height="400" viewBox="0, 0, 400,400"><g id="svgg"><path id="path0" d="M204.300 108.699 C 208.095 108.765,214.305 108.765,218.100 108.699 C 221.895 108.634,218.790 108.580,211.200 108.580 C 203.610 108.580,200.505 108.634,204.300 108.699 M96.562 109.262 C 96.373 109.567,96.454 109.614,96.800 109.400 C 97.146 109.186,97.227 109.233,97.038 109.538 C 96.881 109.792,96.238 110.000,95.609 110.000 C 94.061 110.000,93.200 110.373,93.200 111.043 C 93.200 111.349,92.840 111.600,92.400 111.600 C 91.876 111.600,91.600 111.867,91.600 112.372 C 91.600 112.868,91.278 113.190,90.700 113.272 C 90.205 113.342,89.800 113.610,89.800 113.867 C 89.800 114.123,89.636 114.483,89.436 114.667 C 89.224 114.860,89.192 114.790,89.359 114.500 C 89.518 114.225,89.452 114.000,89.214 114.000 C 88.975 114.000,88.675 114.524,88.547 115.165 C 88.411 115.843,87.998 116.412,87.557 116.527 C 87.061 116.657,86.800 117.081,86.800 117.759 C 86.800 118.360,86.465 119.003,86.000 119.293 C 85.466 119.626,85.200 120.226,85.200 121.096 C 85.200 121.867,84.873 122.727,84.400 123.200 C 83.867 123.733,83.600 124.533,83.600 125.600 C 83.600 126.667,83.333 127.467,82.800 128.000 C 82.228 128.572,82.000 129.333,82.000 130.674 C 82.000 131.979,81.764 132.800,81.224 133.375 C 80.720 133.910,80.412 134.878,80.348 136.124 C 80.293 137.181,80.074 138.154,79.862 138.285 C 79.628 138.430,79.610 138.303,79.815 137.962 C 80.103 137.483,80.053 137.481,79.477 137.949 C 79.073 138.276,78.800 139.066,78.800 139.905 C 78.800 140.720,78.537 141.504,78.173 141.770 C 77.829 142.022,77.450 143.032,77.332 144.014 C 77.213 144.996,76.775 146.532,76.358 147.426 C 75.941 148.321,75.600 149.451,75.600 149.939 C 75.600 150.426,75.330 150.929,75.000 151.055 C 74.572 151.220,74.400 151.889,74.400 153.396 C 74.400 155.170,74.272 155.540,73.600 155.716 C 72.923 155.893,72.800 156.262,72.800 158.116 C 72.800 159.970,72.677 160.339,72.000 160.516 C 71.334 160.690,71.200 161.062,71.200 162.736 C 71.200 164.395,71.060 164.790,70.400 165.000 C 69.735 165.211,69.600 165.605,69.600 167.331 C 69.600 168.974,69.433 169.512,68.800 169.907 C 68.178 170.296,68.000 170.840,68.000 172.357 C 68.000 173.970,67.862 174.343,67.200 174.516 C 66.539 174.689,66.400 175.062,66.400 176.666 C 66.400 178.174,66.221 178.719,65.600 179.107 C 64.974 179.498,64.800 180.040,64.800 181.603 C 64.800 183.043,64.645 183.600,64.243 183.600 C 63.504 183.600,63.200 184.486,63.200 186.633 C 63.200 187.877,63.035 188.400,62.643 188.400 C 61.904 188.400,61.600 189.286,61.600 191.433 C 61.600 192.671,61.434 193.200,61.047 193.200 C 60.421 193.200,60.014 194.397,60.005 196.257 C 60.002 197.002,59.755 197.608,59.400 197.745 C 59.037 197.884,58.798 198.494,58.795 199.287 C 58.787 201.199,58.385 202.400,57.753 202.400 C 57.344 202.400,57.200 203.023,57.200 204.800 C 57.200 206.933,57.111 207.200,56.400 207.200 C 55.699 207.200,55.600 207.467,55.600 209.353 C 55.600 211.170,55.475 211.539,54.800 211.716 C 54.120 211.894,54.000 212.262,54.000 214.163 C 54.000 216.133,53.905 216.400,53.200 216.400 C 52.489 216.400,52.400 216.667,52.400 218.800 C 52.400 220.933,52.311 221.200,51.600 221.200 C 50.895 221.200,50.800 221.467,50.800 223.437 C 50.800 225.338,50.680 225.706,50.000 225.884 C 49.328 226.060,49.200 226.430,49.200 228.200 C 49.200 229.970,49.072 230.340,48.400 230.516 C 47.720 230.694,47.600 231.062,47.600 232.963 C 47.600 234.933,47.505 235.200,46.800 235.200 C 46.089 235.200,46.000 235.467,46.000 237.600 C 46.000 239.733,45.911 240.000,45.200 240.000 C 44.497 240.000,44.400 240.267,44.400 242.200 C 44.400 243.814,44.252 244.400,43.843 244.400 C 43.122 244.400,42.800 245.279,42.800 247.245 C 42.800 248.281,42.593 248.904,42.200 249.055 C 41.761 249.224,41.600 249.916,41.600 251.643 C 41.600 253.733,41.509 254.000,40.800 254.000 C 40.137 254.000,40.000 254.267,40.000 255.553 C 40.000 256.770,39.827 257.152,39.200 257.316 C 38.523 257.493,38.400 257.862,38.400 259.716 C 38.400 261.570,38.277 261.939,37.600 262.116 C 36.939 262.289,36.800 262.662,36.800 264.266 C 36.800 265.774,36.621 266.319,36.000 266.707 C 35.378 267.096,35.200 267.640,35.200 269.157 C 35.200 270.770,35.062 271.143,34.400 271.316 C 33.720 271.494,33.600 271.862,33.600 273.763 C 33.600 275.408,33.453 276.000,33.043 276.000 C 32.346 276.000,32.000 276.870,32.000 278.619 C 32.000 279.562,31.758 280.101,31.200 280.400 C 30.602 280.720,30.400 281.238,30.400 282.451 C 30.400 283.468,30.101 284.453,29.600 285.091 C 29.160 285.650,28.800 286.714,28.800 287.454 C 28.800 288.194,28.638 288.800,28.439 288.800 C 27.997 288.800,27.200 290.993,27.200 292.211 C 27.200 292.701,26.953 293.307,26.651 293.558 C 26.348 293.809,25.985 294.893,25.842 295.967 C 25.688 297.132,25.344 298.013,24.991 298.148 C 23.970 298.540,24.152 305.838,25.200 306.493 C 25.640 306.768,26.000 307.309,26.000 307.696 C 26.000 308.133,26.303 308.400,26.800 308.400 C 27.333 308.400,27.600 308.667,27.600 309.200 C 27.600 309.858,27.867 310.000,29.104 310.000 C 30.183 310.000,30.751 310.230,31.116 310.813 C 31.847 311.985,62.189 311.878,63.490 310.700 C 63.928 310.303,64.893 310.000,65.717 310.000 C 66.762 310.000,67.292 309.775,67.600 309.200 C 67.835 308.760,68.382 308.400,68.814 308.400 C 69.246 308.400,69.600 308.151,69.600 307.847 C 69.600 307.542,69.960 307.199,70.400 307.084 C 70.840 306.969,71.200 306.609,71.200 306.284 C 71.200 305.959,71.560 305.599,72.000 305.484 C 72.440 305.369,72.800 304.988,72.800 304.637 C 72.800 304.287,73.058 304.000,73.373 304.000 C 73.688 304.000,74.055 303.657,74.188 303.237 C 74.321 302.817,74.694 302.373,75.015 302.250 C 75.431 302.090,75.600 301.385,75.600 299.813 C 75.600 297.867,75.696 297.600,76.400 297.600 C 77.111 297.600,77.200 297.333,77.200 295.200 C 77.200 293.067,77.289 292.800,78.000 292.800 C 78.701 292.800,78.800 292.533,78.800 290.647 C 78.800 288.830,78.925 288.461,79.600 288.284 C 80.280 288.106,80.400 287.738,80.400 285.837 C 80.400 283.867,80.495 283.600,81.200 283.600 C 81.911 283.600,82.000 283.333,82.000 281.200 C 82.000 279.067,82.089 278.800,82.800 278.800 C 83.511 278.800,83.600 278.533,83.600 276.400 C 83.600 274.267,83.689 274.000,84.400 274.000 C 85.101 274.000,85.200 273.733,85.200 271.847 C 85.200 270.030,85.325 269.661,86.000 269.484 C 86.677 269.307,86.800 268.938,86.800 267.084 C 86.800 265.230,86.923 264.861,87.600 264.684 C 88.277 264.507,88.400 264.138,88.400 262.284 C 88.400 260.430,88.523 260.061,89.200 259.884 C 89.855 259.713,90.000 259.338,90.000 257.825 C 90.000 256.602,90.191 255.902,90.564 255.758 C 90.913 255.625,91.233 254.637,91.403 253.171 C 91.593 251.535,91.852 250.800,92.239 250.800 C 92.626 250.800,92.800 250.308,92.800 249.214 C 92.800 248.038,93.007 247.518,93.600 247.200 C 94.235 246.860,94.400 246.362,94.400 244.786 C 94.400 243.355,94.556 242.800,94.957 242.800 C 95.691 242.800,96.000 241.916,96.000 239.814 C 96.000 238.430,96.156 238.052,96.800 237.884 C 97.461 237.711,97.600 237.338,97.600 235.734 C 97.600 234.226,97.779 233.681,98.400 233.293 C 99.026 232.902,99.200 232.360,99.200 230.797 C 99.200 229.357,99.355 228.800,99.757 228.800 C 100.496 228.800,100.800 227.914,100.800 225.767 C 100.800 224.267,100.921 224.000,101.600 224.000 C 102.303 224.000,102.400 223.733,102.400 221.800 L 102.400 219.600 103.200 220.400 C 103.867 221.067,104.000 221.733,104.000 224.404 C 104.000 227.113,104.124 227.714,104.800 228.293 C 105.466 228.863,105.600 229.473,105.600 231.926 C 105.600 234.538,105.691 234.899,106.400 235.084 C 107.128 235.275,107.200 235.630,107.200 239.047 C 107.200 241.946,107.324 242.800,107.744 242.800 C 108.311 242.800,108.790 245.463,108.797 248.657 C 108.799 249.759,109.001 250.392,109.400 250.545 C 109.840 250.714,110.000 251.408,110.000 253.155 C 110.000 255.897,110.258 256.800,111.043 256.800 C 111.475 256.800,111.600 257.556,111.600 260.167 C 111.600 263.876,111.808 264.800,112.643 264.800 C 113.072 264.800,113.200 265.527,113.200 267.967 C 113.200 271.437,113.418 272.400,114.203 272.400 C 114.578 272.400,114.759 273.400,114.860 276.032 C 114.971 278.922,115.143 279.770,115.700 280.177 C 116.261 280.587,116.400 281.295,116.400 283.744 C 116.400 286.267,116.540 286.940,117.200 287.600 C 117.858 288.258,118.000 288.933,118.000 291.400 C 118.000 294.133,118.071 294.400,118.800 294.400 C 119.543 294.400,119.600 294.667,119.600 298.173 C 119.600 301.595,119.674 301.970,120.400 302.200 C 121.100 302.422,121.200 302.805,121.200 305.264 C 121.200 307.738,121.296 308.100,122.000 308.284 C 122.443 308.400,122.800 308.830,122.800 309.247 C 122.800 309.900,123.116 310.000,125.180 310.000 C 127.031 310.000,127.647 310.156,127.952 310.700 C 128.315 311.349,129.524 311.400,144.404 311.400 C 159.238 311.400,160.504 311.347,160.976 310.700 C 161.306 310.250,162.021 310.000,162.982 310.000 C 164.138 310.000,164.522 309.820,164.684 309.200 C 164.799 308.760,165.213 308.400,165.604 308.400 C 165.995 308.400,166.412 308.147,166.530 307.838 C 166.649 307.528,167.298 307.154,167.973 307.006 C 168.648 306.858,169.200 306.480,169.200 306.166 C 169.200 305.852,169.650 305.203,170.200 304.725 C 170.750 304.247,171.200 303.528,171.200 303.128 C 171.200 302.728,171.451 302.400,171.757 302.400 C 172.399 302.400,172.800 301.549,172.800 300.187 C 172.800 299.666,173.043 299.096,173.340 298.920 C 173.636 298.744,173.998 297.706,174.144 296.614 C 174.292 295.503,174.671 294.480,175.004 294.294 C 175.418 294.062,175.600 293.295,175.600 291.780 C 175.600 289.867,175.698 289.600,176.400 289.600 C 177.102 289.600,177.200 289.333,177.200 287.427 C 177.200 285.605,177.329 285.213,178.000 285.000 C 178.668 284.788,178.800 284.395,178.800 282.620 C 178.800 280.830,178.927 280.460,179.600 280.284 C 180.277 280.107,180.400 279.738,180.400 277.884 C 180.400 276.030,180.523 275.661,181.200 275.484 C 181.870 275.309,182.000 274.938,182.000 273.200 C 182.000 271.462,182.130 271.091,182.800 270.916 C 183.472 270.740,183.600 270.370,183.600 268.600 C 183.600 266.830,183.728 266.460,184.400 266.284 C 185.077 266.107,185.200 265.738,185.200 263.884 C 185.200 262.030,185.323 261.661,186.000 261.484 C 186.677 261.307,186.800 260.938,186.800 259.084 C 186.800 257.230,186.923 256.861,187.600 256.684 C 188.268 256.509,188.400 256.138,188.400 254.437 C 188.400 252.969,188.555 252.400,188.953 252.400 C 189.605 252.400,189.987 251.189,189.995 249.100 C 189.998 248.036,190.174 247.600,190.600 247.600 C 191.026 247.600,191.202 247.164,191.205 246.100 C 191.213 244.011,191.595 242.800,192.247 242.800 C 192.649 242.800,192.800 242.213,192.800 240.647 C 192.800 238.830,192.925 238.461,193.600 238.284 C 194.280 238.106,194.400 237.738,194.400 235.837 C 194.400 233.867,194.495 233.600,195.200 233.600 C 195.911 233.600,196.000 233.333,196.000 231.200 C 196.000 229.067,196.089 228.800,196.800 228.800 C 197.505 228.800,197.600 228.533,197.600 226.563 C 197.600 224.662,197.720 224.294,198.400 224.116 C 199.074 223.940,199.200 223.570,199.200 221.777 C 199.200 220.606,199.380 219.536,199.600 219.400 C 200.105 219.088,200.110 211.881,199.607 210.000 C 199.225 208.575,198.959 207.382,197.600 201.000 C 196.560 196.117,195.681 192.116,194.745 188.000 C 194.520 187.010,194.151 185.120,193.926 183.800 C 193.701 182.480,193.276 180.587,192.981 179.594 C 192.687 178.601,192.248 176.550,192.006 175.036 C 191.764 173.523,191.404 171.981,191.206 171.611 C 191.008 171.241,190.734 169.962,190.596 168.769 C 190.459 167.576,190.097 165.880,189.792 165.000 C 189.486 164.120,189.060 162.230,188.844 160.800 C 188.628 159.370,188.170 157.216,187.826 156.013 C 187.482 154.810,187.200 153.319,187.200 152.700 C 187.200 152.081,186.939 150.949,186.620 150.185 C 186.300 149.421,185.912 147.672,185.757 146.298 C 185.602 144.924,185.251 143.260,184.976 142.600 C 184.702 141.940,184.346 140.320,184.185 139.000 C 184.025 137.680,183.707 136.150,183.480 135.600 C 183.253 135.050,182.865 133.251,182.619 131.603 C 182.125 128.297,181.582 127.795,179.780 128.976 C 178.957 129.515,178.800 129.938,178.800 131.609 C 178.800 133.038,178.644 133.600,178.247 133.600 C 177.595 133.600,177.213 134.811,177.205 136.900 C 177.202 137.903,177.018 138.400,176.650 138.400 C 176.079 138.400,175.600 140.063,175.600 142.050 C 175.600 142.806,175.394 143.200,175.000 143.200 C 174.541 143.200,174.400 143.706,174.400 145.353 C 174.400 147.170,174.275 147.539,173.600 147.716 C 172.920 147.894,172.800 148.262,172.800 150.163 C 172.800 152.133,172.705 152.400,172.000 152.400 C 171.289 152.400,171.200 152.667,171.200 154.800 C 171.200 156.933,171.111 157.200,170.400 157.200 C 169.712 157.200,169.600 157.467,169.600 159.104 C 169.600 160.574,169.418 161.121,168.800 161.507 C 168.193 161.886,168.000 162.440,168.000 163.800 C 168.000 165.160,167.807 165.714,167.200 166.093 C 166.582 166.479,166.400 167.026,166.400 168.493 C 166.400 169.960,166.218 170.507,165.600 170.893 C 165.055 171.233,164.800 171.826,164.800 172.752 C 164.800 173.537,164.529 174.310,164.159 174.580 C 163.791 174.849,163.424 175.890,163.297 177.024 C 163.175 178.111,162.821 179.186,162.511 179.414 C 162.201 179.642,161.843 180.602,161.716 181.549 C 161.589 182.495,161.248 183.360,160.958 183.471 C 160.653 183.589,160.320 184.657,160.167 186.013 C 160.007 187.429,159.685 188.435,159.351 188.563 C 159.012 188.694,158.800 189.382,158.800 190.355 C 158.800 192.321,158.478 193.200,157.757 193.200 C 157.371 193.200,157.200 193.705,157.200 194.842 C 157.200 195.964,156.915 196.822,156.300 197.548 C 154.842 199.270,154.000 198.057,154.000 194.233 C 154.000 190.916,153.774 190.000,152.957 190.000 C 152.529 190.000,152.400 189.283,152.400 186.896 C 152.400 184.226,152.288 183.723,151.600 183.293 C 150.902 182.857,150.800 182.360,150.800 179.411 C 150.800 176.438,150.703 175.976,150.000 175.600 C 149.296 175.223,149.200 174.762,149.200 171.748 C 149.200 168.662,149.121 168.305,148.400 168.116 C 147.672 167.925,147.600 167.570,147.600 164.153 C 147.600 160.667,147.543 160.400,146.800 160.400 C 146.059 160.400,146.000 160.133,146.000 156.814 C 146.000 153.638,145.909 153.179,145.200 152.800 C 144.506 152.429,144.400 151.962,144.400 149.282 C 144.400 146.626,144.288 146.122,143.600 145.693 C 142.902 145.257,142.800 144.760,142.800 141.797 C 142.800 139.199,142.672 138.400,142.256 138.400 C 141.687 138.400,141.210 135.735,141.203 132.520 C 141.201 131.522,140.977 130.710,140.652 130.520 C 140.283 130.305,140.041 129.099,139.914 126.840 C 139.773 124.332,139.558 123.358,139.063 122.996 C 138.555 122.625,138.400 121.857,138.400 119.710 C 138.400 117.514,138.227 116.688,137.600 115.891 C 137.160 115.331,136.800 114.319,136.800 113.640 C 136.800 112.840,136.519 112.231,136.000 111.907 C 135.560 111.632,135.200 111.200,135.200 110.947 C 135.200 110.390,134.280 110.000,132.967 110.000 C 132.374 110.000,132.000 109.768,132.000 109.400 C 132.000 108.614,97.046 108.478,96.562 109.262 " stroke="none" fill="#999" fill-rule="evenodd"></path>
<path id="path1" d="M366.522 65.578 C 366.339 66.277,365.989 66.400,364.180 66.400 C 362.405 66.400,362.012 66.532,361.800 67.200 C 361.611 67.795,361.195 68.000,360.173 68.000 C 359.067 68.000,358.800 68.155,358.800 68.800 C 358.800 69.333,358.533 69.600,358.000 69.600 C 357.467 69.600,357.200 69.867,357.200 70.400 C 357.200 71.067,356.933 71.200,355.600 71.200 C 354.267 71.200,354.000 71.333,354.000 72.000 C 354.000 72.622,353.733 72.800,352.803 72.800 C 352.040 72.800,351.426 73.090,351.107 73.600 C 350.832 74.040,350.291 74.400,349.904 74.400 C 349.517 74.400,349.200 74.662,349.200 74.982 C 349.200 75.333,348.631 75.670,347.768 75.832 C 346.981 75.980,346.241 76.348,346.125 76.651 C 346.009 76.953,345.647 77.200,345.320 77.200 C 344.993 77.200,344.631 77.560,344.516 78.000 C 344.359 78.601,343.970 78.800,342.953 78.800 C 341.867 78.800,341.600 78.958,341.600 79.600 C 341.600 80.187,341.333 80.400,340.600 80.400 C 340.050 80.400,339.240 80.760,338.800 81.200 C 338.360 81.640,337.730 82.000,337.400 82.000 C 337.067 82.000,336.800 82.356,336.800 82.800 C 336.800 83.452,336.533 83.600,335.363 83.600 C 334.262 83.600,333.876 83.787,333.716 84.400 C 333.601 84.840,333.211 85.200,332.850 85.200 C 332.488 85.200,331.968 85.560,331.693 86.000 C 331.403 86.465,330.760 86.800,330.159 86.800 C 329.462 86.800,329.057 87.060,328.916 87.600 C 328.781 88.117,328.370 88.400,327.757 88.400 C 327.234 88.400,326.582 88.760,326.307 89.200 C 326.032 89.640,325.491 90.000,325.104 90.000 C 324.667 90.000,324.400 90.303,324.400 90.800 C 324.400 91.467,324.133 91.600,322.800 91.600 C 321.644 91.600,321.200 91.767,321.200 92.200 C 321.200 92.530,320.924 92.800,320.587 92.800 C 320.251 92.800,319.872 93.068,319.746 93.396 C 319.621 93.723,318.816 94.180,317.959 94.411 C 317.050 94.656,316.400 95.074,316.400 95.415 C 316.400 95.737,316.040 96.000,315.600 96.000 C 315.067 96.000,314.800 96.267,314.800 96.800 C 314.800 97.333,314.533 97.600,314.000 97.600 C 313.467 97.600,313.200 97.867,313.200 98.400 C 313.200 98.933,312.933 99.200,312.400 99.200 C 311.883 99.200,311.600 99.467,311.600 99.953 C 311.600 100.370,311.243 100.800,310.800 100.916 C 310.360 101.031,310.000 101.418,310.000 101.777 C 310.000 102.135,309.744 102.827,309.431 103.314 C 308.154 105.304,308.154 113.200,309.432 113.200 C 309.744 113.200,310.000 113.560,310.000 114.000 C 310.000 114.533,310.267 114.800,310.800 114.800 C 311.333 114.800,311.600 115.067,311.600 115.600 C 311.600 116.124,311.867 116.400,312.373 116.400 C 312.798 116.400,313.260 116.760,313.400 117.200 C 313.594 117.811,314.005 118.000,315.138 118.000 L 316.621 118.000 316.469 119.600 C 316.349 120.850,316.150 121.200,315.558 121.200 C 314.940 121.200,314.800 121.496,314.800 122.800 C 314.800 124.133,314.667 124.400,314.000 124.400 C 313.358 124.400,313.200 124.667,313.200 125.753 C 313.200 126.770,313.001 127.159,312.400 127.316 C 311.794 127.475,311.600 127.862,311.600 128.916 C 311.600 129.970,311.406 130.357,310.800 130.516 C 310.215 130.669,310.000 131.062,310.000 131.975 C 310.000 132.717,309.756 133.319,309.400 133.455 C 309.070 133.582,308.800 134.005,308.800 134.396 C 308.800 134.787,308.440 135.201,308.000 135.316 C 307.387 135.476,307.200 135.862,307.200 136.963 C 307.200 138.133,307.052 138.400,306.400 138.400 C 305.733 138.400,305.600 138.667,305.600 140.000 C 305.600 141.333,305.467 141.600,304.800 141.600 C 304.158 141.600,304.000 141.867,304.000 142.953 C 304.000 143.970,303.801 144.359,303.200 144.516 C 302.587 144.676,302.400 145.062,302.400 146.163 C 302.400 147.333,302.252 147.600,301.600 147.600 C 301.067 147.600,300.800 147.867,300.800 148.400 C 300.800 148.840,300.440 149.560,300.000 150.000 C 299.560 150.440,299.200 151.117,299.200 151.504 C 299.200 151.891,298.840 152.432,298.400 152.707 C 297.890 153.026,297.600 153.640,297.600 154.403 C 297.600 155.160,297.395 155.600,297.043 155.600 C 296.405 155.600,296.000 156.449,296.000 157.786 C 296.000 158.370,295.708 158.783,295.200 158.916 C 294.664 159.056,294.400 159.462,294.400 160.143 C 294.400 160.702,294.175 161.304,293.900 161.480 C 293.172 161.946,291.600 165.021,291.600 165.979 C 291.600 166.431,291.349 166.800,291.043 166.800 C 290.440 166.800,290.000 167.638,290.000 168.786 C 290.000 169.182,289.640 169.601,289.200 169.716 C 288.587 169.876,288.400 170.262,288.400 171.363 C 288.400 172.533,288.252 172.800,287.600 172.800 C 286.933 172.800,286.800 173.067,286.800 174.400 C 286.800 175.733,286.667 176.000,286.000 176.000 C 285.358 176.000,285.200 176.267,285.200 177.353 C 285.200 178.370,285.001 178.759,284.400 178.916 C 283.787 179.076,283.600 179.462,283.600 180.563 C 283.600 181.733,283.452 182.000,282.800 182.000 C 282.227 182.000,282.000 182.267,282.000 182.938 C 282.000 183.454,281.640 184.202,281.200 184.600 C 280.760 184.998,280.400 185.637,280.400 186.019 C 280.400 186.402,280.140 186.814,279.822 186.936 C 279.504 187.058,279.124 187.797,278.978 188.579 C 278.831 189.361,278.477 190.000,278.191 190.000 C 277.895 190.000,277.553 190.692,277.400 191.600 C 277.234 192.584,276.912 193.200,276.565 193.200 C 276.254 193.200,275.973 193.560,275.940 194.000 C 275.907 194.440,275.862 195.025,275.840 195.300 C 275.818 195.575,275.485 195.929,275.100 196.087 C 274.620 196.284,274.400 196.818,274.400 197.787 C 274.400 198.933,274.249 199.200,273.600 199.200 C 272.933 199.200,272.800 199.467,272.800 200.800 C 272.800 202.133,272.667 202.400,272.000 202.400 C 271.333 202.400,271.200 202.667,271.200 204.000 C 271.200 205.333,271.067 205.600,270.400 205.600 C 269.883 205.600,269.600 205.867,269.600 206.353 C 269.600 206.770,269.243 207.200,268.800 207.316 C 268.194 207.475,268.000 207.862,268.000 208.916 C 268.000 209.970,267.806 210.357,267.200 210.516 C 266.626 210.666,266.400 211.062,266.400 211.916 C 266.400 212.770,266.174 213.166,265.600 213.316 C 264.994 213.475,264.800 213.862,264.800 214.916 C 264.800 215.970,264.606 216.357,264.000 216.516 C 263.394 216.675,263.200 217.062,263.200 218.116 C 263.200 219.170,263.006 219.557,262.400 219.716 C 261.794 219.875,261.600 220.262,261.600 221.316 C 261.600 222.370,261.406 222.757,260.800 222.916 C 260.217 223.068,260.000 223.462,260.000 224.363 C 260.000 225.043,259.814 225.600,259.587 225.600 C 259.360 225.600,259.011 226.005,258.812 226.500 C 258.568 227.109,258.443 227.190,258.425 226.749 C 258.411 226.391,258.157 225.896,257.859 225.649 C 257.531 225.376,257.219 223.907,257.065 221.900 C 256.905 219.821,256.608 218.451,256.263 218.198 C 255.905 217.935,255.647 216.628,255.520 214.438 C 255.375 211.936,255.157 210.958,254.663 210.596 C 254.155 210.225,254.000 209.457,254.000 207.310 C 254.000 205.114,253.827 204.288,253.200 203.491 C 252.572 202.692,252.400 201.868,252.400 199.651 C 252.400 197.238,252.284 196.766,251.600 196.400 C 250.897 196.024,250.800 195.562,250.800 192.589 C 250.800 189.640,250.698 189.143,250.000 188.707 C 249.325 188.285,249.199 187.771,249.195 185.404 C 249.188 182.064,248.902 180.800,248.153 180.800 C 247.728 180.800,247.600 180.058,247.600 177.600 C 247.600 174.933,247.467 174.267,246.800 173.600 C 246.153 172.953,246.000 172.267,246.000 170.003 C 246.000 167.640,245.876 167.129,245.200 166.707 C 244.505 166.273,244.400 165.774,244.400 162.907 C 244.400 160.040,244.295 159.541,243.600 159.107 C 242.916 158.680,242.800 158.173,242.797 155.604 C 242.795 153.279,242.615 152.329,242.000 151.400 C 241.409 150.507,241.205 149.522,241.203 147.549 C 241.201 145.813,241.013 144.743,240.659 144.449 C 240.333 144.179,240.021 142.731,239.872 140.806 C 239.737 139.049,239.371 137.204,239.060 136.706 C 238.749 136.208,238.388 134.559,238.257 133.042 C 238.118 131.434,237.765 130.004,237.410 129.611 C 237.023 129.184,236.798 128.143,236.795 126.769 C 236.788 124.042,236.462 122.800,235.753 122.800 C 235.330 122.800,235.200 122.077,235.200 119.726 C 235.200 117.210,235.056 116.498,234.406 115.807 C 233.969 115.342,233.564 114.295,233.506 113.482 C 233.443 112.601,233.193 112.001,232.887 112.001 C 232.606 112.000,232.259 111.685,232.117 111.300 C 231.764 110.344,231.197 110.013,229.900 110.006 C 229.192 110.002,228.800 109.786,228.800 109.400 C 228.800 108.876,226.556 108.800,211.000 108.800 C 195.444 108.800,193.200 108.876,193.200 109.400 C 193.200 109.822,192.774 110.000,191.763 110.000 C 190.662 110.000,190.276 110.187,190.116 110.800 C 190.001 111.240,189.590 111.600,189.202 111.600 C 188.815 111.600,188.264 111.882,187.978 112.226 C 187.692 112.571,186.950 113.116,186.329 113.437 C 185.474 113.879,185.200 114.310,185.200 115.210 C 185.200 116.133,185.021 116.400,184.400 116.400 C 183.733 116.400,183.600 116.667,183.600 118.000 C 183.600 119.333,183.467 119.600,182.800 119.600 C 182.089 119.600,182.000 119.867,182.000 122.000 C 182.000 124.133,181.911 124.400,181.200 124.400 C 179.927 124.400,180.010 128.288,181.287 128.472 C 182.063 128.584,182.228 128.971,182.620 131.600 C 182.866 133.250,183.253 135.050,183.480 135.600 C 183.707 136.150,184.025 137.680,184.185 139.000 C 184.346 140.320,184.702 141.940,184.976 142.600 C 185.251 143.260,185.602 144.924,185.757 146.298 C 185.912 147.672,186.300 149.421,186.620 150.185 C 186.939 150.949,187.200 152.081,187.200 152.700 C 187.200 153.319,187.482 154.810,187.826 156.013 C 188.170 157.216,188.628 159.370,188.844 160.800 C 189.060 162.230,189.486 164.120,189.792 165.000 C 190.097 165.880,190.459 167.576,190.596 168.769 C 190.734 169.962,191.008 171.241,191.206 171.611 C 191.404 171.981,191.764 173.523,192.006 175.036 C 192.248 176.550,192.687 178.601,192.981 179.594 C 193.276 180.587,193.701 182.480,193.926 183.800 C 194.151 185.120,194.540 187.100,194.791 188.200 C 195.718 192.276,196.510 195.882,197.600 201.000 C 198.959 207.382,199.225 208.575,199.607 210.000 C 200.099 211.842,200.108 219.086,199.617 219.389 C 199.085 219.718,199.565 220.800,200.243 220.800 C 200.675 220.800,200.800 221.561,200.800 224.200 C 200.800 227.067,200.925 227.725,201.600 228.400 C 202.250 229.050,202.400 229.733,202.400 232.037 C 202.400 234.538,202.495 234.900,203.200 235.084 C 203.928 235.275,204.000 235.630,204.000 239.047 C 204.000 242.533,204.057 242.800,204.800 242.800 C 205.544 242.800,205.600 243.067,205.600 246.637 C 205.600 250.138,205.670 250.493,206.400 250.684 C 207.116 250.871,207.200 251.230,207.200 254.115 C 207.200 256.622,207.355 257.509,207.900 258.110 C 208.424 258.689,208.636 259.755,208.742 262.342 C 208.841 264.761,209.051 265.896,209.442 266.120 C 209.806 266.328,210.002 267.165,210.005 268.520 C 210.012 271.162,210.345 272.400,211.047 272.400 C 211.470 272.400,211.601 273.130,211.605 275.500 C 211.612 279.127,211.882 280.400,212.647 280.400 C 213.066 280.400,213.201 281.100,213.205 283.300 C 213.212 286.733,213.493 288.000,214.247 288.000 C 214.672 288.000,214.800 288.742,214.800 291.200 C 214.800 293.867,214.933 294.533,215.600 295.200 C 216.255 295.855,216.400 296.533,216.400 298.946 C 216.400 301.286,216.564 302.101,217.200 302.909 C 217.766 303.629,218.000 304.532,218.000 306.001 C 218.000 307.738,218.130 308.109,218.800 308.284 C 219.243 308.400,219.600 308.830,219.600 309.247 C 219.600 309.863,219.901 310.000,221.256 310.000 C 222.371 310.000,223.079 310.228,223.423 310.700 C 224.521 312.202,259.200 311.864,259.200 310.351 C 259.200 310.158,260.027 310.000,261.037 310.000 C 262.538 310.000,262.913 309.854,263.084 309.200 C 263.199 308.760,263.613 308.400,264.004 308.400 C 264.395 308.400,264.818 308.130,264.945 307.800 C 265.071 307.470,265.359 307.200,265.584 307.200 C 266.315 307.200,268.000 305.476,268.000 304.728 C 268.000 304.267,268.293 304.000,268.800 304.000 C 269.317 304.000,269.600 303.733,269.600 303.247 C 269.600 302.830,269.957 302.400,270.400 302.284 C 271.006 302.125,271.200 301.738,271.200 300.684 C 271.200 299.630,271.394 299.243,272.000 299.084 C 272.613 298.924,272.800 298.538,272.800 297.437 C 272.800 296.475,272.984 296.000,273.357 296.000 C 274.002 296.000,274.400 295.148,274.400 293.767 C 274.400 293.174,274.632 292.800,275.000 292.800 C 275.419 292.800,275.600 292.378,275.600 291.400 C 275.600 290.267,275.752 290.000,276.400 290.000 C 276.976 290.000,277.200 289.733,277.200 289.047 C 277.200 288.430,277.482 288.019,278.000 287.884 C 278.574 287.734,278.800 287.338,278.800 286.484 C 278.800 285.630,279.026 285.234,279.600 285.084 C 280.213 284.924,280.400 284.538,280.400 283.437 C 280.400 282.267,280.548 282.000,281.200 282.000 C 281.867 282.000,282.000 281.733,282.000 280.400 C 282.000 279.067,282.133 278.800,282.800 278.800 C 283.467 278.800,283.600 278.533,283.600 277.200 C 283.600 275.867,283.733 275.600,284.400 275.600 C 285.042 275.600,285.200 275.333,285.200 274.247 C 285.200 273.230,285.399 272.841,286.000 272.684 C 286.589 272.530,286.800 272.138,286.800 271.200 C 286.800 270.262,287.011 269.870,287.600 269.716 C 288.040 269.601,288.400 269.187,288.400 268.796 C 288.400 268.405,288.660 267.986,288.978 267.864 C 289.296 267.742,289.676 267.003,289.822 266.221 C 289.976 265.403,290.325 264.800,290.645 264.800 C 290.965 264.800,291.200 264.391,291.200 263.833 C 291.200 262.452,291.598 261.600,292.243 261.600 C 292.626 261.600,292.800 261.101,292.800 260.000 C 292.800 258.667,292.933 258.400,293.600 258.400 C 294.248 258.400,294.400 258.133,294.400 257.000 C 294.400 255.867,294.552 255.600,295.200 255.600 C 295.773 255.600,296.000 255.333,296.000 254.662 C 296.000 254.146,296.360 253.398,296.800 253.000 C 297.240 252.602,297.600 251.950,297.600 251.552 C 297.600 251.154,297.960 250.635,298.400 250.400 C 298.913 250.126,299.200 249.562,299.200 248.833 C 299.200 248.030,299.436 247.632,300.000 247.484 C 300.609 247.325,300.800 246.938,300.800 245.864 C 300.800 244.805,300.999 244.391,301.600 244.200 C 302.195 244.011,302.400 243.595,302.400 242.573 C 302.400 241.467,302.555 241.200,303.200 241.200 C 303.820 241.200,304.000 240.933,304.000 240.014 C 304.000 239.238,304.276 238.680,304.800 238.400 C 305.240 238.165,305.600 237.618,305.600 237.186 C 305.600 236.754,305.751 236.400,305.936 236.400 C 306.390 236.400,307.264 234.427,306.999 233.999 C 306.883 233.811,307.151 233.543,307.594 233.402 C 308.196 233.211,308.400 232.798,308.400 231.773 C 308.400 230.667,308.555 230.400,309.200 230.400 C 309.867 230.400,310.000 230.133,310.000 228.800 C 310.000 227.467,310.133 227.200,310.800 227.200 C 311.467 227.200,311.600 226.933,311.600 225.600 C 311.600 224.267,311.733 224.000,312.400 224.000 C 313.042 224.000,313.200 223.733,313.200 222.647 C 313.200 221.630,313.399 221.241,314.000 221.084 C 314.453 220.966,314.800 220.538,314.800 220.099 C 314.800 219.673,315.160 218.998,315.600 218.600 C 316.040 218.202,316.400 217.584,316.400 217.227 C 316.400 216.870,316.760 216.270,317.200 215.893 C 317.640 215.516,318.000 214.756,318.000 214.204 C 318.000 213.612,318.229 213.200,318.557 213.200 C 319.198 213.200,319.600 212.350,319.600 210.994 C 319.600 210.405,319.899 209.959,320.400 209.800 C 320.988 209.613,321.200 209.195,321.200 208.220 C 321.200 207.246,321.405 206.840,321.971 206.692 C 322.502 206.553,322.783 206.071,322.871 205.145 C 322.943 204.391,323.205 203.839,323.467 203.889 C 323.726 203.938,324.053 203.270,324.202 202.389 C 324.367 201.414,324.689 200.800,325.035 200.800 C 325.396 200.800,325.600 200.367,325.600 199.603 C 325.600 198.840,325.890 198.226,326.400 197.907 C 326.840 197.632,327.200 197.112,327.200 196.750 C 327.200 196.389,327.560 195.999,328.000 195.884 C 328.606 195.725,328.800 195.338,328.800 194.284 C 328.800 193.230,328.994 192.843,329.600 192.684 C 330.189 192.530,330.400 192.138,330.400 191.200 C 330.400 190.262,330.611 189.870,331.200 189.716 C 331.794 189.561,332.000 189.170,332.000 188.200 C 332.000 187.230,332.206 186.839,332.800 186.684 C 333.413 186.524,333.600 186.138,333.600 185.037 C 333.600 183.867,333.748 183.600,334.400 183.600 C 335.067 183.600,335.200 183.333,335.200 182.000 C 335.200 180.667,335.333 180.400,336.000 180.400 C 336.667 180.400,336.800 180.133,336.800 178.800 C 336.800 177.467,336.933 177.200,337.600 177.200 C 338.118 177.200,338.400 176.933,338.400 176.443 C 338.400 176.026,338.660 175.586,338.978 175.464 C 339.296 175.342,339.676 174.603,339.822 173.821 C 339.976 173.003,340.325 172.400,340.645 172.400 C 341.009 172.400,341.200 171.935,341.200 171.047 C 341.200 170.030,341.399 169.641,342.000 169.484 C 342.613 169.324,342.800 168.938,342.800 167.837 C 342.800 166.667,342.948 166.400,343.600 166.400 C 344.267 166.400,344.400 166.133,344.400 164.800 C 344.400 163.467,344.533 163.200,345.200 163.200 C 345.867 163.200,346.000 162.933,346.000 161.600 C 346.000 160.283,346.137 160.000,346.776 160.000 C 347.384 160.000,347.579 159.675,347.676 158.500 C 347.760 157.489,347.995 157.000,348.400 157.000 C 348.805 157.000,349.040 156.511,349.124 155.500 C 349.221 154.325,349.416 154.000,350.024 154.000 C 350.498 154.000,350.800 153.726,350.800 153.296 C 350.800 152.909,351.160 152.368,351.600 152.093 C 352.099 151.781,352.400 151.160,352.400 150.443 C 352.400 149.630,352.634 149.232,353.200 149.084 C 353.806 148.925,354.000 148.538,354.000 147.484 C 354.000 146.423,354.192 146.043,354.811 145.881 C 355.258 145.764,355.596 145.518,355.564 145.334 C 355.330 144.002,355.686 142.871,356.400 142.684 C 356.983 142.532,357.200 142.138,357.200 141.237 C 357.200 140.404,357.396 140.000,357.800 140.000 C 358.233 140.000,358.400 139.556,358.400 138.400 C 358.400 137.067,358.533 136.800,359.200 136.800 C 359.787 136.800,360.000 136.533,360.000 135.800 C 360.000 135.212,360.230 134.800,360.557 134.800 C 361.160 134.800,361.600 133.962,361.600 132.814 C 361.600 132.418,361.960 131.999,362.400 131.884 C 363.013 131.724,363.200 131.338,363.200 130.237 C 363.200 129.067,363.348 128.800,364.000 128.800 C 364.533 128.800,364.800 128.533,364.800 128.000 C 364.800 127.378,365.067 127.200,365.997 127.200 C 366.760 127.200,367.374 127.490,367.693 128.000 C 368.018 128.521,368.626 128.800,369.434 128.800 C 370.168 128.800,370.972 128.473,371.400 128.000 C 371.935 127.409,372.632 127.200,374.066 127.200 C 375.513 127.200,376.182 126.996,376.693 126.400 C 377.070 125.960,377.698 125.600,378.089 125.600 C 378.480 125.600,378.800 125.344,378.800 125.032 C 378.800 124.719,379.341 124.345,380.003 124.199 C 380.665 124.054,381.391 123.590,381.617 123.167 C 381.843 122.745,382.296 122.400,382.624 122.400 C 382.965 122.400,383.322 121.891,383.458 121.212 C 383.592 120.542,384.024 119.919,384.448 119.785 C 384.861 119.654,385.200 119.198,385.200 118.773 C 385.200 118.348,385.573 117.627,386.030 117.170 C 387.181 116.019,387.072 105.478,385.900 104.623 C 385.322 104.201,385.200 103.477,385.200 100.471 C 385.200 97.405,385.080 96.718,384.436 96.116 C 383.790 95.510,383.651 94.703,383.536 90.867 C 383.423 87.113,383.280 86.246,382.700 85.823 C 382.122 85.401,382.000 84.676,382.000 81.656 C 382.000 78.533,381.883 77.883,381.200 77.200 C 380.532 76.532,380.400 75.867,380.400 73.163 C 380.400 70.262,380.317 69.903,379.600 69.716 C 379.157 69.600,378.800 69.170,378.800 68.753 C 378.800 68.282,378.518 68.000,378.047 68.000 C 377.630 68.000,377.200 67.643,377.084 67.200 C 376.924 66.587,376.538 66.400,375.437 66.400 C 374.574 66.400,373.706 66.106,373.262 65.662 C 372.100 64.500,366.821 64.434,366.522 65.578 " stroke="none" fill="#aaa" fill-rule="evenodd"></path></g></svg>