<svg id="svg" version="1.1" xmlns="http://www.w3.org/2000/svg" xmlns:xlink="http://www.w3.org/1999/xlink" width="400" height="400" viewBox="0, 0, 400,400"><g id="svgg"><path id="path0" d="M96.624 112.213 C 96.196 112.536,95.550 112.800,95.186 112.800 C 93.364 112.800,88.501 118.920,87.939 121.920 C 87.762 122.866,87.343 123.914,87.008 124.249 C 86.674 124.583,86.399 125.429,86.397 126.129 C 86.396 126.828,86.037 127.940,85.600 128.600 C 85.163 129.260,84.804 130.357,84.803 131.039 C 84.801 131.720,84.440 132.693,84.000 133.200 C 83.504 133.772,83.200 134.697,83.200 135.633 C 83.200 136.463,82.926 137.417,82.592 137.751 C 82.257 138.086,81.831 139.177,81.644 140.176 C 81.458 141.174,81.076 142.267,80.797 142.603 C 80.518 142.939,80.149 143.886,79.976 144.707 C 79.591 146.536,78.531 149.644,77.540 151.844 C 77.133 152.748,76.800 153.950,76.800 154.515 C 76.800 155.080,76.526 155.817,76.192 156.151 C 75.857 156.486,75.431 157.577,75.244 158.576 C 75.058 159.574,74.717 160.619,74.488 160.896 C 74.259 161.173,73.939 162.120,73.777 163.000 C 73.615 163.880,73.149 165.227,72.741 165.994 C 72.334 166.761,72.000 167.864,72.000 168.445 C 72.000 169.026,71.752 169.707,71.450 169.959 C 71.147 170.210,70.778 171.177,70.630 172.108 C 70.481 173.038,70.112 174.179,69.809 174.642 C 69.506 175.104,69.132 176.184,68.977 177.042 C 68.822 177.899,68.526 178.815,68.318 179.077 C 68.110 179.340,67.693 180.420,67.391 181.477 C 66.634 184.128,65.620 187.167,65.015 188.600 C 64.389 190.078,63.306 193.202,62.586 195.600 C 62.289 196.590,61.576 198.660,61.001 200.200 C 60.427 201.740,59.775 203.630,59.553 204.400 C 59.331 205.170,58.890 206.367,58.574 207.060 C 58.258 207.754,57.994 208.654,57.986 209.060 C 57.979 209.467,57.625 210.520,57.200 211.400 C 56.775 212.280,56.421 213.310,56.414 213.689 C 56.406 214.068,56.051 215.148,55.624 216.089 C 55.197 217.030,54.389 219.240,53.830 221.000 C 52.342 225.678,51.235 228.831,50.579 230.260 C 50.261 230.954,50.000 231.821,50.000 232.187 C 50.000 232.553,49.794 233.237,49.542 233.708 C 49.291 234.178,48.847 235.381,48.557 236.382 C 48.267 237.382,47.205 240.540,46.196 243.400 C 45.188 246.260,44.113 249.410,43.809 250.400 C 42.625 254.246,40.669 259.879,39.952 261.511 C 39.538 262.452,39.200 263.539,39.200 263.926 C 39.200 264.314,38.840 265.337,38.400 266.200 C 37.960 267.063,37.594 268.136,37.586 268.585 C 37.579 269.033,37.225 270.120,36.800 271.000 C 36.375 271.880,36.021 272.922,36.014 273.316 C 36.006 273.710,35.640 274.738,35.200 275.600 C 34.760 276.462,34.394 277.490,34.386 277.884 C 34.379 278.278,34.025 279.320,33.600 280.200 C 33.175 281.080,32.821 282.201,32.814 282.690 C 32.806 283.180,32.441 284.170,32.001 284.890 C 31.562 285.611,31.202 286.612,31.201 287.116 C 31.201 287.620,30.840 288.738,30.400 289.600 C 29.960 290.462,29.600 291.585,29.600 292.095 C 29.600 292.605,29.345 293.386,29.033 293.831 C 28.721 294.277,28.341 295.352,28.188 296.220 C 28.035 297.089,27.631 298.244,27.290 298.786 C 25.056 302.334,27.312 307.510,31.455 308.342 C 34.778 309.010,60.634 308.936,63.829 308.250 C 67.734 307.412,72.767 303.105,73.635 299.859 C 73.879 298.947,74.214 298.020,74.381 297.800 C 74.547 297.580,74.878 296.680,75.118 295.800 C 75.756 293.449,76.763 290.446,77.599 288.400 C 78.003 287.410,78.721 285.250,79.194 283.600 C 79.667 281.950,80.295 280.060,80.588 279.400 C 81.144 278.151,82.057 275.482,82.983 272.400 C 83.281 271.410,83.877 269.610,84.309 268.400 C 84.740 267.190,85.682 264.400,86.401 262.200 C 87.588 258.567,88.315 256.481,89.816 252.400 C 90.374 250.884,91.303 248.056,92.182 245.200 C 93.067 242.323,94.038 239.495,94.585 238.200 C 95.385 236.310,96.434 233.131,96.764 231.600 C 96.929 230.830,97.365 229.624,97.733 228.920 C 98.100 228.216,98.401 227.226,98.403 226.720 C 98.404 226.214,98.763 225.260,99.200 224.600 C 99.637 223.940,99.996 222.904,99.997 222.299 C 99.999 221.693,100.360 220.525,100.800 219.704 C 101.240 218.884,101.603 217.759,101.606 217.206 C 101.614 215.969,101.937 215.458,103.104 214.844 C 104.225 214.253,104.559 214.965,104.942 218.759 C 105.084 220.167,105.381 221.536,105.603 221.803 C 105.824 222.070,106.180 223.668,106.394 225.355 C 106.608 227.041,106.980 228.788,107.220 229.237 C 107.460 229.686,107.899 231.526,108.195 233.327 C 108.490 235.127,108.917 237.320,109.143 238.200 C 109.369 239.080,109.731 240.700,109.946 241.800 C 110.161 242.900,110.521 244.520,110.746 245.400 C 111.238 247.328,111.898 250.546,112.469 253.800 C 112.701 255.120,113.230 257.355,113.645 258.767 C 114.060 260.179,114.400 261.877,114.400 262.539 C 114.400 263.202,114.743 264.836,115.161 266.172 C 115.580 267.507,116.120 269.725,116.361 271.100 C 116.603 272.475,116.999 274.725,117.241 276.100 C 117.484 277.475,117.930 279.320,118.232 280.200 C 118.535 281.080,118.950 282.997,119.155 284.459 C 119.360 285.922,119.731 287.498,119.979 287.961 C 120.227 288.425,120.539 290.018,120.671 291.502 C 120.803 292.986,121.139 294.652,121.417 295.205 C 121.695 295.758,122.038 297.108,122.179 298.205 C 123.083 305.252,123.805 307.460,125.307 307.776 C 125.798 307.879,127.154 308.151,128.320 308.382 C 131.458 309.001,157.516 308.903,160.840 308.259 C 164.441 307.562,170.333 302.835,170.414 300.578 C 170.421 300.370,170.775 299.480,171.200 298.600 C 171.625 297.720,171.979 296.637,171.986 296.194 C 171.994 295.751,172.360 294.716,172.800 293.896 C 173.240 293.075,173.600 291.992,173.600 291.490 C 173.600 290.989,173.847 290.223,174.149 289.789 C 174.451 289.355,174.887 288.190,175.119 287.200 C 175.638 284.983,176.678 281.937,177.660 279.756 C 178.067 278.852,178.400 277.808,178.400 277.436 C 178.400 277.064,178.649 276.274,178.953 275.680 C 179.257 275.086,179.631 273.845,179.784 272.923 C 179.937 272.001,180.318 271.034,180.631 270.774 C 180.944 270.514,181.200 269.826,181.200 269.245 C 181.200 268.664,181.534 267.561,181.941 266.794 C 182.349 266.027,182.814 264.689,182.974 263.820 C 183.135 262.952,183.521 261.877,183.833 261.431 C 184.145 260.986,184.400 260.164,184.400 259.605 C 184.400 259.046,184.760 257.916,185.200 257.096 C 185.640 256.275,186.000 255.235,186.000 254.786 C 186.000 254.336,186.360 253.262,186.800 252.400 C 187.240 251.538,187.600 250.458,187.600 250.000 C 187.600 249.542,187.960 248.462,188.400 247.600 C 188.840 246.738,189.200 245.664,189.200 245.214 C 189.200 244.765,189.560 243.725,190.000 242.904 C 190.440 242.084,190.800 241.085,190.800 240.686 C 190.800 240.287,191.055 239.468,191.366 238.866 C 191.677 238.265,192.060 237.059,192.218 236.186 C 192.375 235.314,192.674 234.385,192.882 234.123 C 193.090 233.860,193.505 232.780,193.805 231.723 C 194.447 229.454,195.527 226.305,196.270 224.540 C 196.562 223.846,196.806 222.946,196.814 222.540 C 196.821 222.133,197.175 221.080,197.600 220.200 C 198.025 219.320,198.379 218.278,198.386 217.884 C 198.394 217.490,198.775 216.432,199.234 215.533 C 200.184 213.672,200.147 211.522,199.093 207.200 C 198.113 203.185,197.584 200.831,197.028 198.000 C 196.554 195.587,195.937 192.757,194.804 187.800 C 194.552 186.700,194.100 184.415,193.799 182.722 C 193.498 181.029,193.075 179.314,192.859 178.911 C 192.644 178.508,192.272 176.777,192.034 175.064 C 191.796 173.351,191.443 171.646,191.251 171.275 C 191.058 170.904,190.770 169.520,190.611 168.200 C 190.452 166.880,190.084 165.228,189.793 164.529 C 189.503 163.829,189.137 162.209,188.981 160.929 C 188.825 159.648,188.465 157.970,188.181 157.200 C 187.897 156.430,187.547 154.641,187.404 153.225 C 187.261 151.809,186.909 150.189,186.623 149.625 C 186.336 149.061,185.971 147.520,185.812 146.200 C 185.652 144.880,185.290 143.243,185.008 142.563 C 184.725 141.882,184.361 140.189,184.200 138.800 C 184.039 137.411,183.658 135.679,183.353 134.950 C 183.049 134.222,182.787 133.035,182.772 132.313 C 182.725 130.142,182.156 129.119,181.818 130.600 C 181.668 131.260,181.198 132.540,180.773 133.444 C 180.348 134.348,180.000 135.523,180.000 136.055 C 180.000 136.587,179.753 137.377,179.451 137.811 C 179.149 138.245,178.772 139.230,178.612 140.000 C 178.452 140.770,178.082 141.779,177.790 142.242 C 177.497 142.704,177.132 143.784,176.977 144.642 C 176.823 145.499,176.464 146.650,176.180 147.200 C 175.636 148.254,174.725 150.913,173.809 154.123 C 173.507 155.180,173.083 156.260,172.866 156.523 C 172.649 156.785,172.345 157.720,172.191 158.600 C 172.037 159.480,171.660 160.599,171.355 161.086 C 171.050 161.573,170.800 162.300,170.800 162.701 C 170.800 163.103,170.440 164.137,170.000 165.000 C 169.560 165.863,169.200 166.924,169.200 167.358 C 169.200 167.792,168.874 168.879,168.475 169.774 C 167.459 172.055,166.392 175.142,166.034 176.840 C 165.866 177.632,165.430 178.707,165.065 179.229 C 164.699 179.751,164.400 180.636,164.400 181.195 C 164.400 181.754,164.040 182.884,163.600 183.704 C 163.160 184.525,162.794 185.513,162.786 185.899 C 162.779 186.284,162.425 187.320,162.000 188.200 C 161.575 189.080,161.220 190.250,161.212 190.800 C 161.204 191.350,160.838 192.389,160.399 193.110 C 159.959 193.830,159.600 194.782,159.600 195.226 C 159.600 195.669,159.240 196.738,158.800 197.600 C 158.360 198.462,158.000 199.542,158.000 200.000 C 158.000 200.458,157.640 201.538,157.200 202.400 C 156.760 203.262,156.400 204.403,156.400 204.935 C 156.400 208.018,154.670 206.834,153.815 203.167 C 153.485 201.755,152.922 199.340,152.563 197.800 C 152.203 196.260,151.771 194.100,151.601 193.000 C 151.432 191.900,151.002 190.022,150.647 188.827 C 150.291 187.632,150.000 186.143,150.000 185.517 C 150.000 184.891,149.664 182.989,149.252 181.289 C 147.967 175.981,146.797 170.490,145.398 163.200 C 145.082 161.550,144.643 159.480,144.423 158.600 C 143.982 156.836,142.859 151.559,141.614 145.400 C 141.169 143.200,140.444 139.735,140.003 137.700 C 139.561 135.665,138.849 132.335,138.420 130.300 C 135.359 115.773,134.771 114.004,132.503 112.500 C 130.755 111.342,98.121 111.080,96.624 112.213 " stroke="none" fill="#262626" fill-rule="evenodd"></path><path id="path1" d="M364.800 62.400 C 364.800 63.111,364.533 63.200,362.400 63.200 C 360.267 63.200,360.000 63.289,360.000 64.000 C 360.000 64.648,359.733 64.800,358.600 64.800 C 357.467 64.800,357.200 64.952,357.200 65.600 C 357.200 66.133,356.933 66.400,356.400 66.400 C 355.867 66.400,355.600 66.667,355.600 67.200 C 355.600 67.867,355.333 68.000,354.000 68.000 C 352.667 68.000,352.400 68.133,352.400 68.800 C 352.400 69.467,352.133 69.600,350.800 69.600 C 349.467 69.600,349.200 69.733,349.200 70.400 C 349.200 70.933,348.933 71.200,348.400 71.200 C 347.867 71.200,347.600 71.467,347.600 72.000 C 347.600 72.667,347.333 72.800,346.000 72.800 C 344.667 72.800,344.400 72.933,344.400 73.600 C 344.400 74.133,344.133 74.400,343.600 74.400 C 343.156 74.400,342.800 74.667,342.800 75.000 C 342.800 75.419,342.378 75.600,341.400 75.600 C 340.267 75.600,340.000 75.752,340.000 76.400 C 340.000 77.067,339.733 77.200,338.400 77.200 C 337.067 77.200,336.800 77.333,336.800 78.000 C 336.800 78.533,336.533 78.800,336.000 78.800 C 335.467 78.800,335.200 79.067,335.200 79.600 C 335.200 80.267,334.933 80.400,333.600 80.400 C 332.267 80.400,332.000 80.533,332.000 81.200 C 332.000 81.867,331.733 82.000,330.400 82.000 C 329.067 82.000,328.800 82.133,328.800 82.800 C 328.800 83.333,328.533 83.600,328.000 83.600 C 327.467 83.600,327.200 83.867,327.200 84.400 C 327.200 85.048,326.933 85.200,325.800 85.200 C 324.667 85.200,324.400 85.352,324.400 86.000 C 324.400 86.533,324.133 86.800,323.600 86.800 C 323.067 86.800,322.800 87.067,322.800 87.600 C 322.800 88.267,322.533 88.400,321.200 88.400 C 319.867 88.400,319.600 88.533,319.600 89.200 C 319.600 89.867,319.333 90.000,318.000 90.000 C 316.667 90.000,316.400 90.133,316.400 90.800 C 316.400 91.333,316.133 91.600,315.600 91.600 C 315.156 91.600,314.800 91.867,314.800 92.200 C 314.800 92.530,314.513 92.800,314.163 92.800 C 313.812 92.800,313.431 93.160,313.316 93.600 C 313.200 94.043,312.770 94.400,312.353 94.400 C 311.882 94.400,311.600 94.682,311.600 95.153 C 311.600 95.570,311.243 96.000,310.800 96.116 C 310.360 96.231,310.000 96.612,310.000 96.963 C 310.000 97.313,309.742 97.600,309.427 97.600 C 309.112 97.600,308.740 97.960,308.600 98.400 C 308.460 98.840,308.088 99.200,307.773 99.200 C 307.458 99.200,307.200 99.560,307.200 100.000 C 307.200 100.533,306.933 100.800,306.400 100.800 C 305.630 100.800,305.600 101.067,305.600 107.800 C 305.600 114.533,305.630 114.800,306.400 114.800 C 306.933 114.800,307.200 115.067,307.200 115.600 C 307.200 116.040,307.458 116.400,307.773 116.400 C 308.088 116.400,308.460 116.760,308.600 117.200 C 308.740 117.640,309.112 118.000,309.427 118.000 C 309.742 118.000,310.000 118.360,310.000 118.800 C 310.000 119.333,310.267 119.600,310.800 119.600 C 311.467 119.600,311.600 119.867,311.600 121.200 C 311.600 122.533,311.467 122.800,310.800 122.800 C 310.152 122.800,310.000 123.067,310.000 124.200 C 310.000 125.130,309.813 125.600,309.443 125.600 C 308.798 125.600,308.400 126.452,308.400 127.833 C 308.400 128.426,308.168 128.800,307.800 128.800 C 307.467 128.800,307.200 129.156,307.200 129.600 C 307.200 130.133,306.933 130.400,306.400 130.400 C 305.733 130.400,305.600 130.667,305.600 132.000 C 305.600 133.333,305.467 133.600,304.800 133.600 C 304.133 133.600,304.000 133.867,304.000 135.200 C 304.000 136.533,303.867 136.800,303.200 136.800 C 302.533 136.800,302.400 137.067,302.400 138.400 C 302.400 139.733,302.267 140.000,301.600 140.000 C 300.952 140.000,300.800 140.267,300.800 141.400 C 300.800 142.533,300.648 142.800,300.000 142.800 C 299.333 142.800,299.200 143.067,299.200 144.400 C 299.200 145.733,299.067 146.000,298.400 146.000 C 297.867 146.000,297.600 146.267,297.600 146.800 C 297.600 147.333,297.333 147.600,296.800 147.600 C 296.133 147.600,296.000 147.867,296.000 149.200 C 296.000 150.533,295.867 150.800,295.200 150.800 C 294.533 150.800,294.400 151.067,294.400 152.400 C 294.400 153.733,294.267 154.000,293.600 154.000 C 292.933 154.000,292.800 154.267,292.800 155.600 C 292.800 156.756,292.633 157.200,292.200 157.200 C 291.870 157.200,291.600 157.458,291.600 157.773 C 291.600 158.088,291.240 158.460,290.800 158.600 C 290.205 158.789,290.000 159.205,290.000 160.227 C 290.000 161.333,289.845 161.600,289.200 161.600 C 288.533 161.600,288.400 161.867,288.400 163.200 C 288.400 164.533,288.267 164.800,287.600 164.800 C 286.933 164.800,286.800 165.067,286.800 166.400 C 286.800 167.733,286.667 168.000,286.000 168.000 C 285.333 168.000,285.200 168.267,285.200 169.600 C 285.200 170.933,285.067 171.200,284.400 171.200 C 283.733 171.200,283.600 171.467,283.600 172.800 C 283.600 174.133,283.467 174.400,282.800 174.400 C 282.152 174.400,282.000 174.667,282.000 175.800 C 282.000 176.933,281.848 177.200,281.200 177.200 C 280.533 177.200,280.400 177.467,280.400 178.800 C 280.400 180.133,280.267 180.400,279.600 180.400 C 279.067 180.400,278.800 180.667,278.800 181.200 C 278.800 181.733,278.533 182.000,278.000 182.000 C 277.337 182.000,277.200 182.267,277.200 183.553 C 277.200 184.770,277.027 185.152,276.400 185.316 C 275.787 185.476,275.600 185.862,275.600 186.963 C 275.600 187.974,275.422 188.400,275.000 188.400 C 274.567 188.400,274.400 188.844,274.400 190.000 C 274.400 191.333,274.267 191.600,273.600 191.600 C 272.952 191.600,272.800 191.867,272.800 193.000 C 272.800 194.133,272.648 194.400,272.000 194.400 C 271.333 194.400,271.200 194.667,271.200 196.000 C 271.200 197.333,271.067 197.600,270.400 197.600 C 269.733 197.600,269.600 197.867,269.600 199.200 C 269.600 200.533,269.467 200.800,268.800 200.800 C 268.133 200.800,268.000 201.067,268.000 202.400 C 268.000 203.733,267.867 204.000,267.200 204.000 C 266.667 204.000,266.400 204.267,266.400 204.800 C 266.400 205.333,266.133 205.600,265.600 205.600 C 264.955 205.600,264.800 205.867,264.800 206.973 C 264.800 207.995,264.595 208.411,264.000 208.600 C 263.405 208.789,263.200 209.205,263.200 210.227 C 263.200 211.333,263.045 211.600,262.400 211.600 C 261.733 211.600,261.600 211.867,261.600 213.200 C 261.600 214.533,261.467 214.800,260.800 214.800 C 260.267 214.800,260.000 215.067,260.000 215.600 C 260.000 216.133,259.733 216.400,259.200 216.400 C 258.456 216.400,258.400 216.133,258.400 212.587 C 258.400 209.568,258.275 208.727,257.800 208.545 C 257.326 208.363,257.200 207.528,257.200 204.557 C 257.200 201.067,257.143 200.800,256.400 200.800 C 255.670 200.800,255.600 200.533,255.600 197.763 C 255.600 195.062,255.511 194.702,254.800 194.516 C 254.072 194.325,254.000 193.970,254.000 190.553 C 254.000 187.067,253.943 186.800,253.200 186.800 C 252.453 186.800,252.400 186.533,252.400 182.800 C 252.400 179.067,252.347 178.800,251.600 178.800 C 250.856 178.800,250.800 178.533,250.800 175.000 C 250.800 171.467,250.744 171.200,250.000 171.200 C 249.267 171.200,249.200 170.933,249.200 168.000 C 249.200 165.067,249.133 164.800,248.400 164.800 C 247.656 164.800,247.600 164.533,247.600 161.000 C 247.600 157.467,247.544 157.200,246.800 157.200 C 246.053 157.200,246.000 156.933,246.000 153.200 C 246.000 149.467,245.947 149.200,245.200 149.200 C 244.456 149.200,244.400 148.933,244.400 145.400 C 244.400 141.867,244.344 141.600,243.600 141.600 C 242.853 141.600,242.800 141.333,242.800 137.600 C 242.800 134.311,242.693 133.600,242.200 133.600 C 241.719 133.600,241.600 132.996,241.600 130.563 C 241.600 127.862,241.511 127.502,240.800 127.316 C 240.091 127.131,240.000 126.770,240.000 124.153 C 240.000 121.467,239.928 121.200,239.200 121.200 C 238.453 121.200,238.400 120.933,238.400 117.200 C 238.400 113.467,238.347 113.200,237.600 113.200 C 236.933 113.200,236.800 112.933,236.800 111.600 C 236.800 110.267,236.667 110.000,236.000 110.000 C 235.560 110.000,235.200 109.742,235.200 109.427 C 235.200 109.112,234.840 108.740,234.400 108.600 C 233.960 108.460,233.600 108.088,233.600 107.773 C 233.600 107.371,233.122 107.200,232.000 107.200 C 230.667 107.200,230.400 107.067,230.400 106.400 C 230.400 105.611,230.133 105.600,211.000 105.600 C 191.867 105.600,191.600 105.611,191.600 106.400 C 191.600 107.067,191.333 107.200,190.000 107.200 C 188.844 107.200,188.400 107.367,188.400 107.800 C 188.400 108.168,188.026 108.400,187.433 108.400 C 186.052 108.400,185.200 108.798,185.200 109.443 C 185.200 109.749,184.840 110.000,184.400 110.000 C 183.867 110.000,183.600 110.267,183.600 110.800 C 183.600 111.333,183.333 111.600,182.800 111.600 C 182.133 111.600,182.000 111.867,182.000 113.200 C 182.000 114.533,181.867 114.800,181.200 114.800 C 180.533 114.800,180.400 115.067,180.400 116.400 C 180.400 117.733,180.267 118.000,179.600 118.000 C 178.889 118.000,178.800 118.267,178.800 120.400 C 178.800 122.533,178.711 122.800,178.000 122.800 C 177.299 122.800,177.200 123.067,177.200 124.953 C 177.200 126.770,177.075 127.139,176.400 127.316 C 175.720 127.494,175.600 127.862,175.600 129.763 C 175.600 131.485,175.462 132.000,175.000 132.000 C 174.533 132.000,174.400 132.533,174.400 134.400 C 174.400 136.533,174.311 136.800,173.600 136.800 C 172.889 136.800,172.800 137.067,172.800 139.200 C 172.800 141.333,172.711 141.600,172.000 141.600 C 171.297 141.600,171.200 141.867,171.200 143.800 C 171.200 145.733,171.103 146.000,170.400 146.000 C 169.689 146.000,169.600 146.267,169.600 148.400 C 169.600 150.533,169.511 150.800,168.800 150.800 C 168.089 150.800,168.000 151.067,168.000 153.200 C 168.000 155.333,167.911 155.600,167.200 155.600 C 166.555 155.600,166.400 155.867,166.400 156.973 C 166.400 157.995,166.195 158.411,165.600 158.600 C 164.929 158.813,164.800 159.205,164.800 161.027 C 164.800 162.933,164.702 163.200,164.000 163.200 C 163.289 163.200,163.200 163.467,163.200 165.600 C 163.200 167.733,163.111 168.000,162.400 168.000 C 161.689 168.000,161.600 168.267,161.600 170.400 C 161.600 172.533,161.511 172.800,160.800 172.800 C 160.097 172.800,160.000 173.067,160.000 175.000 C 160.000 176.614,159.852 177.200,159.443 177.200 C 158.798 177.200,158.400 178.052,158.400 179.433 C 158.400 180.026,158.168 180.400,157.800 180.400 C 157.317 180.400,157.200 181.022,157.200 183.600 C 157.200 186.533,157.133 186.800,156.400 186.800 C 155.667 186.800,155.600 186.533,155.600 183.600 C 155.600 180.667,155.533 180.400,154.800 180.400 C 154.056 180.400,154.000 180.133,154.000 176.600 C 154.000 173.067,153.944 172.800,153.200 172.800 C 152.467 172.800,152.400 172.533,152.400 169.600 C 152.400 166.667,152.333 166.400,151.600 166.400 C 150.857 166.400,150.800 166.133,150.800 162.627 C 150.800 159.205,150.726 158.830,150.000 158.600 C 149.274 158.370,149.200 157.995,149.200 154.573 C 149.200 151.067,149.143 150.800,148.400 150.800 C 147.653 150.800,147.600 150.533,147.600 146.800 C 147.600 143.067,147.547 142.800,146.800 142.800 C 146.071 142.800,146.000 142.533,146.000 139.800 C 146.000 137.067,145.929 136.800,145.200 136.800 C 144.453 136.800,144.400 136.533,144.400 132.800 C 144.400 129.067,144.347 128.800,143.600 128.800 C 142.856 128.800,142.800 128.533,142.800 125.000 C 142.800 121.889,142.691 121.200,142.200 121.200 C 141.708 121.200,141.600 120.507,141.600 117.363 C 141.600 113.862,141.530 113.507,140.800 113.316 C 140.194 113.157,140.000 112.770,140.000 111.716 C 140.000 110.662,139.806 110.275,139.200 110.116 C 138.760 110.001,138.400 109.670,138.400 109.380 C 138.400 109.091,138.040 108.740,137.600 108.600 C 137.160 108.460,136.800 108.088,136.800 107.773 C 136.800 107.371,136.322 107.200,135.200 107.200 C 133.867 107.200,133.600 107.067,133.600 106.400 C 133.600 105.611,133.333 105.600,114.000 105.600 C 94.667 105.600,94.400 105.611,94.400 106.400 C 94.400 107.048,94.133 107.200,93.000 107.200 C 92.051 107.200,91.600 107.385,91.600 107.773 C 91.600 108.088,91.240 108.460,90.800 108.600 C 90.360 108.740,90.000 109.112,90.000 109.427 C 90.000 109.829,89.522 110.000,88.400 110.000 C 87.067 110.000,86.800 110.133,86.800 110.800 C 86.800 111.333,86.533 111.600,86.000 111.600 C 85.333 111.600,85.200 111.867,85.200 113.200 C 85.200 114.533,85.067 114.800,84.400 114.800 C 83.867 114.800,83.600 115.067,83.600 115.600 C 83.600 116.133,83.333 116.400,82.800 116.400 C 82.089 116.400,82.000 116.667,82.000 118.800 C 82.000 120.933,81.911 121.200,81.200 121.200 C 80.499 121.200,80.400 121.467,80.400 123.353 C 80.400 125.170,80.275 125.539,79.600 125.716 C 78.920 125.894,78.800 126.262,78.800 128.163 C 78.800 130.133,78.705 130.400,78.000 130.400 C 77.291 130.400,77.200 130.667,77.200 132.753 C 77.200 134.770,77.086 135.137,76.400 135.316 C 75.720 135.494,75.600 135.862,75.600 137.763 C 75.600 139.485,75.462 140.000,75.000 140.000 C 74.539 140.000,74.400 140.511,74.400 142.200 C 74.400 144.133,74.303 144.400,73.600 144.400 C 72.889 144.400,72.800 144.667,72.800 146.800 C 72.800 148.933,72.711 149.200,72.000 149.200 C 71.289 149.200,71.200 149.467,71.200 151.600 C 71.200 153.733,71.111 154.000,70.400 154.000 C 69.698 154.000,69.600 154.267,69.600 156.173 C 69.600 157.995,69.471 158.387,68.800 158.600 C 68.129 158.813,68.000 159.205,68.000 161.027 C 68.000 162.933,67.902 163.200,67.200 163.200 C 66.489 163.200,66.400 163.467,66.400 165.600 C 66.400 167.733,66.311 168.000,65.600 168.000 C 64.889 168.000,64.800 168.267,64.800 170.400 C 64.800 172.533,64.711 172.800,64.000 172.800 C 63.299 172.800,63.200 173.067,63.200 174.953 C 63.200 176.770,63.075 177.139,62.400 177.316 C 61.720 177.494,61.600 177.862,61.600 179.763 C 61.600 181.733,61.505 182.000,60.800 182.000 C 60.089 182.000,60.000 182.267,60.000 184.400 C 60.000 186.185,59.857 186.800,59.443 186.800 C 58.704 186.800,58.400 187.686,58.400 189.833 C 58.400 191.137,58.243 191.600,57.800 191.600 C 57.339 191.600,57.200 192.111,57.200 193.800 C 57.200 195.733,57.103 196.000,56.400 196.000 C 55.689 196.000,55.600 196.267,55.600 198.400 C 55.600 200.533,55.511 200.800,54.800 200.800 C 54.089 200.800,54.000 201.067,54.000 203.200 C 54.000 205.333,53.911 205.600,53.200 205.600 C 52.497 205.600,52.400 205.867,52.400 207.800 C 52.400 209.733,52.303 210.000,51.600 210.000 C 50.889 210.000,50.800 210.267,50.800 212.400 C 50.800 214.533,50.711 214.800,50.000 214.800 C 49.289 214.800,49.200 215.067,49.200 217.200 C 49.200 219.333,49.111 219.600,48.400 219.600 C 47.689 219.600,47.600 219.867,47.600 222.000 C 47.600 224.133,47.511 224.400,46.800 224.400 C 46.097 224.400,46.000 224.667,46.000 226.600 C 46.000 228.533,45.903 228.800,45.200 228.800 C 44.489 228.800,44.400 229.067,44.400 231.200 C 44.400 233.333,44.311 233.600,43.600 233.600 C 42.889 233.600,42.800 233.867,42.800 236.000 C 42.800 237.867,42.667 238.400,42.200 238.400 C 41.739 238.400,41.600 238.911,41.600 240.600 C 41.600 242.533,41.503 242.800,40.800 242.800 C 40.133 242.800,40.000 243.067,40.000 244.400 C 40.000 245.733,39.867 246.000,39.200 246.000 C 38.467 246.000,38.400 246.267,38.400 249.200 C 38.400 252.133,38.333 252.400,37.600 252.400 C 36.933 252.400,36.800 252.667,36.800 254.000 C 36.800 255.333,36.667 255.600,36.000 255.600 C 35.297 255.600,35.200 255.867,35.200 257.800 C 35.200 259.733,35.103 260.000,34.400 260.000 C 33.689 260.000,33.600 260.267,33.600 262.400 C 33.600 264.533,33.511 264.800,32.800 264.800 C 32.089 264.800,32.000 265.067,32.000 267.200 C 32.000 269.333,31.911 269.600,31.200 269.600 C 30.489 269.600,30.400 269.867,30.400 272.000 C 30.400 274.133,30.311 274.400,29.600 274.400 C 28.958 274.400,28.800 274.667,28.800 275.753 C 28.800 276.770,28.601 277.159,28.000 277.316 C 27.323 277.493,27.200 277.862,27.200 279.716 C 27.200 281.570,27.077 281.939,26.400 282.116 C 25.720 282.294,25.600 282.662,25.600 284.563 C 25.600 286.285,25.462 286.800,25.000 286.800 C 24.533 286.800,24.400 287.333,24.400 289.200 C 24.400 291.333,24.311 291.600,23.600 291.600 C 22.897 291.600,22.800 291.867,22.800 293.800 C 22.800 295.733,22.703 296.000,22.000 296.000 C 21.234 296.000,21.200 296.267,21.200 302.200 C 21.200 308.133,21.234 308.400,22.000 308.400 C 22.533 308.400,22.800 308.667,22.800 309.200 C 22.800 309.733,23.067 310.000,23.600 310.000 C 24.133 310.000,24.400 310.267,24.400 310.800 C 24.400 311.244,24.667 311.600,25.000 311.600 C 25.333 311.600,25.600 311.956,25.600 312.400 C 25.600 313.067,25.867 313.200,27.200 313.200 C 28.533 313.200,28.800 313.333,28.800 314.000 C 28.800 314.789,29.067 314.800,47.600 314.800 C 66.133 314.800,66.400 314.789,66.400 314.000 C 66.400 313.333,66.667 313.200,68.000 313.200 C 69.333 313.200,69.600 313.067,69.600 312.400 C 69.600 311.867,69.867 311.600,70.400 311.600 C 70.933 311.600,71.200 311.333,71.200 310.800 C 71.200 310.267,71.467 310.000,72.000 310.000 C 72.533 310.000,72.800 309.733,72.800 309.200 C 72.800 308.667,73.067 308.400,73.600 308.400 C 74.044 308.400,74.400 308.133,74.400 307.800 C 74.400 307.470,74.670 307.200,75.000 307.200 C 75.333 307.200,75.600 306.844,75.600 306.400 C 75.600 305.867,75.867 305.600,76.400 305.600 C 76.933 305.600,77.200 305.333,77.200 304.800 C 77.200 304.267,77.467 304.000,78.000 304.000 C 78.711 304.000,78.800 303.733,78.800 301.600 C 78.800 299.467,78.889 299.200,79.600 299.200 C 80.311 299.200,80.400 298.933,80.400 296.800 C 80.400 294.667,80.489 294.400,81.200 294.400 C 81.903 294.400,82.000 294.133,82.000 292.200 C 82.000 290.267,82.097 290.000,82.800 290.000 C 83.511 290.000,83.600 289.733,83.600 287.600 C 83.600 285.467,83.689 285.200,84.400 285.200 C 85.111 285.200,85.200 284.933,85.200 282.800 C 85.200 280.667,85.289 280.400,86.000 280.400 C 86.711 280.400,86.800 280.133,86.800 278.000 C 86.800 275.867,86.889 275.600,87.600 275.600 C 88.301 275.600,88.400 275.333,88.400 273.447 C 88.400 271.630,88.525 271.261,89.200 271.084 C 89.880 270.906,90.000 270.538,90.000 268.637 C 90.000 266.667,90.095 266.400,90.800 266.400 C 91.511 266.400,91.600 266.133,91.600 264.000 C 91.600 262.133,91.733 261.600,92.200 261.600 C 92.633 261.600,92.800 261.156,92.800 260.000 C 92.800 258.667,92.933 258.400,93.600 258.400 C 94.329 258.400,94.400 258.133,94.400 255.400 C 94.400 252.667,94.471 252.400,95.200 252.400 C 95.867 252.400,96.000 252.133,96.000 250.800 C 96.000 249.467,96.133 249.200,96.800 249.200 C 97.511 249.200,97.600 248.933,97.600 246.800 C 97.600 244.667,97.689 244.400,98.400 244.400 C 99.103 244.400,99.200 244.133,99.200 242.200 C 99.200 240.267,99.297 240.000,100.000 240.000 C 100.711 240.000,100.800 239.733,100.800 237.600 C 100.800 235.467,100.889 235.200,101.600 235.200 C 102.133 235.200,102.400 235.467,102.400 236.000 C 102.400 236.533,102.667 236.800,103.200 236.800 C 103.944 236.800,104.000 237.067,104.000 240.600 C 104.000 244.133,104.056 244.400,104.800 244.400 C 105.547 244.400,105.600 244.667,105.600 248.400 C 105.600 252.133,105.653 252.400,106.400 252.400 C 107.129 252.400,107.200 252.667,107.200 255.400 C 107.200 257.800,107.320 258.400,107.800 258.400 C 108.286 258.400,108.400 259.041,108.400 261.767 C 108.400 265.476,108.608 266.400,109.443 266.400 C 109.880 266.400,110.000 267.224,110.000 270.237 C 110.000 273.738,110.070 274.093,110.800 274.284 C 111.528 274.475,111.600 274.830,111.600 278.247 C 111.600 281.733,111.657 282.000,112.400 282.000 C 113.147 282.000,113.200 282.267,113.200 286.000 C 113.200 289.733,113.253 290.000,114.000 290.000 C 114.729 290.000,114.800 290.267,114.800 293.000 C 114.800 295.733,114.871 296.000,115.600 296.000 C 116.347 296.000,116.400 296.267,116.400 300.000 C 116.400 303.733,116.453 304.000,117.200 304.000 C 117.929 304.000,118.000 304.267,118.000 307.000 C 118.000 309.733,118.071 310.000,118.800 310.000 C 119.333 310.000,119.600 310.267,119.600 310.800 C 119.600 311.333,119.867 311.600,120.400 311.600 C 120.933 311.600,121.200 311.867,121.200 312.400 C 121.200 313.101,121.467 313.200,123.353 313.200 C 125.170 313.200,125.539 313.325,125.716 314.000 C 126.045 315.260,163.200 315.260,163.200 314.000 C 163.200 313.333,163.467 313.200,164.800 313.200 C 166.133 313.200,166.400 313.067,166.400 312.400 C 166.400 311.733,166.667 311.600,168.000 311.600 C 169.333 311.600,169.600 311.467,169.600 310.800 C 169.600 310.267,169.867 310.000,170.400 310.000 C 170.933 310.000,171.200 309.733,171.200 309.200 C 171.200 308.667,171.467 308.400,172.000 308.400 C 172.440 308.400,172.800 308.151,172.800 307.847 C 172.800 307.542,173.160 307.199,173.600 307.084 C 174.213 306.924,174.400 306.538,174.400 305.437 C 174.400 304.426,174.578 304.000,175.000 304.000 C 175.433 304.000,175.600 303.556,175.600 302.400 C 175.600 301.067,175.733 300.800,176.400 300.800 C 177.111 300.800,177.200 300.533,177.200 298.400 C 177.200 296.267,177.289 296.000,178.000 296.000 C 178.703 296.000,178.800 295.733,178.800 293.800 C 178.800 291.867,178.897 291.600,179.600 291.600 C 180.311 291.600,180.400 291.333,180.400 289.200 C 180.400 287.067,180.489 286.800,181.200 286.800 C 181.911 286.800,182.000 286.533,182.000 284.400 C 182.000 282.267,182.089 282.000,182.800 282.000 C 183.511 282.000,183.600 281.733,183.600 279.600 C 183.600 277.467,183.689 277.200,184.400 277.200 C 185.103 277.200,185.200 276.933,185.200 275.000 C 185.200 273.067,185.297 272.800,186.000 272.800 C 186.711 272.800,186.800 272.533,186.800 270.400 C 186.800 268.267,186.889 268.000,187.600 268.000 C 188.311 268.000,188.400 267.733,188.400 265.600 C 188.400 263.467,188.489 263.200,189.200 263.200 C 189.911 263.200,190.000 262.933,190.000 260.800 C 190.000 258.667,190.089 258.400,190.800 258.400 C 191.503 258.400,191.600 258.133,191.600 256.200 C 191.600 254.511,191.739 254.000,192.200 254.000 C 192.667 254.000,192.800 253.467,192.800 251.600 C 192.800 249.467,192.889 249.200,193.600 249.200 C 194.311 249.200,194.400 248.933,194.400 246.800 C 194.400 244.667,194.489 244.400,195.200 244.400 C 195.903 244.400,196.000 244.133,196.000 242.200 C 196.000 240.267,196.097 240.000,196.800 240.000 C 197.511 240.000,197.600 239.733,197.600 237.600 C 197.600 235.467,197.689 235.200,198.400 235.200 C 198.933 235.200,199.200 235.467,199.200 236.000 C 199.200 236.533,199.467 236.800,200.000 236.800 C 200.744 236.800,200.800 237.067,200.800 240.600 C 200.800 244.133,200.856 244.400,201.600 244.400 C 202.347 244.400,202.400 244.667,202.400 248.400 C 202.400 252.133,202.453 252.400,203.200 252.400 C 203.944 252.400,204.000 252.667,204.000 256.200 C 204.000 259.733,204.056 260.000,204.800 260.000 C 205.547 260.000,205.600 260.267,205.600 264.000 C 205.600 267.733,205.653 268.000,206.400 268.000 C 207.133 268.000,207.200 268.267,207.200 271.200 C 207.200 273.778,207.317 274.400,207.800 274.400 C 208.283 274.400,208.400 275.019,208.400 277.567 C 208.400 281.080,208.616 282.000,209.443 282.000 C 209.880 282.000,210.000 282.824,210.000 285.837 C 210.000 289.338,210.070 289.693,210.800 289.884 C 211.528 290.075,211.600 290.430,211.600 293.847 C 211.600 297.333,211.657 297.600,212.400 297.600 C 213.147 297.600,213.200 297.867,213.200 301.600 C 213.200 305.333,213.253 305.600,214.000 305.600 C 214.703 305.600,214.800 305.867,214.800 307.800 C 214.800 309.733,214.897 310.000,215.600 310.000 C 216.133 310.000,216.400 310.267,216.400 310.800 C 216.400 311.333,216.667 311.600,217.200 311.600 C 217.733 311.600,218.000 311.867,218.000 312.400 C 218.000 313.067,218.267 313.200,219.600 313.200 C 220.933 313.200,221.200 313.333,221.200 314.000 C 221.200 314.789,221.467 314.800,241.400 314.800 C 261.333 314.800,261.600 314.789,261.600 314.000 C 261.600 313.333,261.867 313.200,263.200 313.200 C 264.533 313.200,264.800 313.067,264.800 312.400 C 264.800 311.733,265.067 311.600,266.400 311.600 C 267.733 311.600,268.000 311.467,268.000 310.800 C 268.000 310.267,268.267 310.000,268.800 310.000 C 269.333 310.000,269.600 309.733,269.600 309.200 C 269.600 308.667,269.867 308.400,270.400 308.400 C 271.048 308.400,271.200 308.133,271.200 307.000 C 271.200 305.986,271.376 305.600,271.837 305.600 C 272.188 305.600,272.569 305.240,272.684 304.800 C 272.800 304.357,273.230 304.000,273.647 304.000 C 274.259 304.000,274.400 303.700,274.400 302.400 C 274.400 301.244,274.567 300.800,275.000 300.800 C 275.433 300.800,275.600 300.356,275.600 299.200 C 275.600 297.867,275.733 297.600,276.400 297.600 C 277.067 297.600,277.200 297.333,277.200 296.000 C 277.200 294.667,277.333 294.400,278.000 294.400 C 278.648 294.400,278.800 294.133,278.800 293.000 C 278.800 291.867,278.952 291.600,279.600 291.600 C 280.133 291.600,280.400 291.333,280.400 290.800 C 280.400 290.267,280.667 290.000,281.200 290.000 C 281.867 290.000,282.000 289.733,282.000 288.400 C 282.000 287.067,282.133 286.800,282.800 286.800 C 283.467 286.800,283.600 286.533,283.600 285.200 C 283.600 283.867,283.733 283.600,284.400 283.600 C 285.067 283.600,285.200 283.333,285.200 282.000 C 285.200 280.667,285.333 280.400,286.000 280.400 C 286.667 280.400,286.800 280.133,286.800 278.800 C 286.800 277.467,286.933 277.200,287.600 277.200 C 288.248 277.200,288.400 276.933,288.400 275.800 C 288.400 274.786,288.576 274.400,289.037 274.400 C 289.388 274.400,289.765 274.057,289.874 273.637 C 289.984 273.217,290.417 272.784,290.837 272.674 C 291.409 272.525,291.600 272.115,291.600 271.037 C 291.600 270.026,291.778 269.600,292.200 269.600 C 292.633 269.600,292.800 269.156,292.800 268.000 C 292.800 266.667,292.933 266.400,293.600 266.400 C 294.267 266.400,294.400 266.133,294.400 264.800 C 294.400 263.467,294.533 263.200,295.200 263.200 C 295.867 263.200,296.000 262.933,296.000 261.600 C 296.000 260.267,296.133 260.000,296.800 260.000 C 297.448 260.000,297.600 259.733,297.600 258.600 C 297.600 257.467,297.752 257.200,298.400 257.200 C 298.933 257.200,299.200 256.933,299.200 256.400 C 299.200 255.867,299.467 255.600,300.000 255.600 C 300.667 255.600,300.800 255.333,300.800 254.000 C 300.800 252.667,300.933 252.400,301.600 252.400 C 302.267 252.400,302.400 252.133,302.400 250.800 C 302.400 249.467,302.533 249.200,303.200 249.200 C 303.867 249.200,304.000 248.933,304.000 247.600 C 304.000 246.267,304.133 246.000,304.800 246.000 C 305.467 246.000,305.600 245.733,305.600 244.400 C 305.600 243.067,305.733 242.800,306.400 242.800 C 306.844 242.800,307.200 242.533,307.200 242.200 C 307.200 241.870,307.470 241.600,307.800 241.600 C 308.233 241.600,308.400 241.156,308.400 240.000 C 308.400 238.667,308.533 238.400,309.200 238.400 C 309.867 238.400,310.000 238.133,310.000 236.800 C 310.000 235.467,310.133 235.200,310.800 235.200 C 311.467 235.200,311.600 234.933,311.600 233.600 C 311.600 232.267,311.733 232.000,312.400 232.000 C 313.067 232.000,313.200 231.733,313.200 230.400 C 313.200 229.067,313.333 228.800,314.000 228.800 C 314.667 228.800,314.800 228.533,314.800 227.200 C 314.800 225.867,314.933 225.600,315.600 225.600 C 316.248 225.600,316.400 225.333,316.400 224.200 C 316.400 223.067,316.552 222.800,317.200 222.800 C 317.733 222.800,318.000 222.533,318.000 222.000 C 318.000 221.467,318.267 221.200,318.800 221.200 C 319.467 221.200,319.600 220.933,319.600 219.600 C 319.600 218.267,319.733 218.000,320.400 218.000 C 321.067 218.000,321.200 217.733,321.200 216.400 C 321.200 215.067,321.333 214.800,322.000 214.800 C 322.667 214.800,322.800 214.533,322.800 213.200 C 322.800 211.867,322.933 211.600,323.600 211.600 C 324.267 211.600,324.400 211.333,324.400 210.000 C 324.400 208.844,324.567 208.400,325.000 208.400 C 325.419 208.400,325.600 207.978,325.600 207.000 C 325.600 205.867,325.752 205.600,326.400 205.600 C 327.067 205.600,327.200 205.333,327.200 204.000 C 327.200 202.667,327.333 202.400,328.000 202.400 C 328.533 202.400,328.800 202.133,328.800 201.600 C 328.800 201.067,329.067 200.800,329.600 200.800 C 330.267 200.800,330.400 200.533,330.400 199.200 C 330.400 197.867,330.533 197.600,331.200 197.600 C 331.867 197.600,332.000 197.333,332.000 196.000 C 332.000 194.667,332.133 194.400,332.800 194.400 C 333.448 194.400,333.600 194.133,333.600 193.000 C 333.600 191.867,333.752 191.600,334.400 191.600 C 335.067 191.600,335.200 191.333,335.200 190.000 C 335.200 188.667,335.333 188.400,336.000 188.400 C 336.667 188.400,336.800 188.133,336.800 186.800 C 336.800 185.467,336.933 185.200,337.600 185.200 C 338.267 185.200,338.400 184.933,338.400 183.600 C 338.400 182.267,338.533 182.000,339.200 182.000 C 339.867 182.000,340.000 181.733,340.000 180.400 C 340.000 179.067,340.133 178.800,340.800 178.800 C 341.333 178.800,341.600 178.533,341.600 178.000 C 341.600 177.556,341.867 177.200,342.200 177.200 C 342.619 177.200,342.800 176.778,342.800 175.800 C 342.800 174.667,342.952 174.400,343.600 174.400 C 344.267 174.400,344.400 174.133,344.400 172.800 C 344.400 171.467,344.533 171.200,345.200 171.200 C 345.867 171.200,346.000 170.933,346.000 169.600 C 346.000 168.267,346.133 168.000,346.800 168.000 C 347.467 168.000,347.600 167.733,347.600 166.400 C 347.600 165.067,347.733 164.800,348.400 164.800 C 349.067 164.800,349.200 164.533,349.200 163.200 C 349.200 161.867,349.333 161.600,350.000 161.600 C 350.667 161.600,350.800 161.333,350.800 160.000 C 350.800 158.667,350.933 158.400,351.600 158.400 C 352.248 158.400,352.400 158.133,352.400 157.000 C 352.400 155.867,352.552 155.600,353.200 155.600 C 353.733 155.600,354.000 155.333,354.000 154.800 C 354.000 154.267,354.267 154.000,354.800 154.000 C 355.467 154.000,355.600 153.733,355.600 152.400 C 355.600 151.067,355.733 150.800,356.400 150.800 C 357.067 150.800,357.200 150.533,357.200 149.200 C 357.200 148.044,357.367 147.600,357.800 147.600 C 358.233 147.600,358.400 147.156,358.400 146.000 C 358.400 144.667,358.533 144.400,359.200 144.400 C 359.848 144.400,360.000 144.133,360.000 143.000 C 360.000 141.867,360.152 141.600,360.800 141.600 C 361.467 141.600,361.600 141.333,361.600 140.000 C 361.600 138.667,361.733 138.400,362.400 138.400 C 362.933 138.400,363.200 138.133,363.200 137.600 C 363.200 137.067,363.467 136.800,364.000 136.800 C 364.667 136.800,364.800 136.533,364.800 135.200 C 364.800 133.867,364.933 133.600,365.600 133.600 C 366.133 133.600,366.400 133.333,366.400 132.800 C 366.400 132.053,366.667 132.000,370.400 132.000 C 374.133 132.000,374.400 131.947,374.400 131.200 C 374.400 130.497,374.667 130.400,376.600 130.400 C 378.533 130.400,378.800 130.303,378.800 129.600 C 378.800 129.067,379.067 128.800,379.600 128.800 C 380.133 128.800,380.400 128.533,380.400 128.000 C 380.400 127.333,380.667 127.200,382.000 127.200 C 383.333 127.200,383.600 127.067,383.600 126.400 C 383.600 125.867,383.867 125.600,384.400 125.600 C 384.844 125.600,385.200 125.333,385.200 125.000 C 385.200 124.667,385.556 124.400,386.000 124.400 C 386.517 124.400,386.800 124.133,386.800 123.647 C 386.800 123.230,387.157 122.800,387.600 122.684 C 388.213 122.524,388.400 122.138,388.400 121.037 C 388.400 119.867,388.548 119.600,389.200 119.600 C 389.975 119.600,390.000 119.333,390.000 111.000 C 390.000 102.667,389.975 102.400,389.200 102.400 C 388.446 102.400,388.400 102.133,388.400 97.763 C 388.400 93.462,388.342 93.110,387.600 92.916 C 386.859 92.722,386.800 92.370,386.800 88.153 C 386.800 83.867,386.753 83.600,386.000 83.600 C 385.246 83.600,385.200 83.333,385.200 79.000 C 385.200 74.667,385.154 74.400,384.400 74.400 C 383.667 74.400,383.600 74.133,383.600 71.200 C 383.600 68.267,383.533 68.000,382.800 68.000 C 382.267 68.000,382.000 67.733,382.000 67.200 C 382.000 66.667,381.733 66.400,381.200 66.400 C 380.667 66.400,380.400 66.133,380.400 65.600 C 380.400 65.067,380.133 64.800,379.600 64.800 C 379.067 64.800,378.800 64.533,378.800 64.000 C 378.800 63.333,378.533 63.200,377.200 63.200 C 375.867 63.200,375.600 63.067,375.600 62.400 C 375.600 61.640,375.333 61.600,370.200 61.600 C 365.067 61.600,364.800 61.640,364.800 62.400 M374.347 68.417 C 376.568 69.494,377.912 71.019,378.208 72.800 C 378.336 73.570,378.685 75.190,378.983 76.400 C 379.281 77.610,379.641 79.860,379.782 81.400 C 379.924 82.940,380.289 85.100,380.593 86.200 C 380.898 87.300,381.270 89.534,381.420 91.164 C 381.571 92.794,381.921 94.684,382.198 95.364 C 382.475 96.044,382.826 98.130,382.978 100.000 C 383.131 101.870,383.525 104.206,383.854 105.191 C 385.151 109.071,384.800 115.058,383.114 117.822 C 379.585 123.608,372.219 127.319,367.250 125.815 C 364.502 124.983,363.475 125.315,362.553 127.332 C 362.234 128.029,361.513 129.410,360.951 130.400 C 359.877 132.291,358.202 135.392,355.550 140.400 C 354.676 142.050,353.402 144.390,352.719 145.600 C 352.036 146.810,350.809 149.060,349.993 150.600 C 346.379 157.413,345.053 159.879,344.396 161.000 C 344.010 161.660,343.067 163.370,342.301 164.800 C 341.535 166.230,340.314 168.480,339.587 169.800 C 338.860 171.120,337.931 172.830,337.523 173.600 C 337.115 174.370,336.221 175.990,335.535 177.200 C 334.388 179.225,332.636 182.470,329.055 189.200 C 328.294 190.630,327.215 192.610,326.657 193.600 C 326.100 194.590,325.022 196.570,324.263 198.000 C 323.503 199.430,322.145 201.950,321.245 203.600 C 320.344 205.250,319.322 207.211,318.974 207.958 C 318.626 208.705,318.084 209.573,317.770 209.887 C 317.457 210.201,317.200 210.722,317.200 211.045 C 317.200 211.368,316.878 212.120,316.484 212.716 C 315.302 214.506,314.829 215.322,314.000 217.000 C 313.566 217.880,313.028 218.915,312.805 219.300 C 311.980 220.727,311.597 221.429,311.010 222.600 C 310.678 223.260,309.877 224.700,309.230 225.800 C 308.583 226.900,308.041 228.056,308.027 228.369 C 308.012 228.681,307.713 229.254,307.363 229.641 C 306.712 230.361,306.388 230.926,303.837 235.800 C 303.030 237.340,301.661 239.860,300.793 241.400 C 299.925 242.940,298.854 244.920,298.413 245.800 C 297.610 247.401,297.337 247.903,296.455 249.400 C 296.196 249.840,295.697 250.830,295.347 251.600 C 294.997 252.370,294.571 253.090,294.400 253.200 C 294.229 253.310,293.808 254.030,293.464 254.800 C 293.119 255.570,291.834 258.000,290.608 260.200 C 289.381 262.400,288.020 264.920,287.583 265.800 C 287.146 266.680,286.358 268.120,285.832 269.000 C 285.305 269.880,284.220 271.860,283.421 273.400 C 282.621 274.940,281.510 277.010,280.952 278.000 C 279.591 280.413,277.704 283.890,275.994 287.133 C 275.221 288.600,273.934 290.970,273.133 292.400 C 272.332 293.830,270.974 296.361,270.114 298.025 C 264.936 308.045,262.508 309.048,243.800 308.897 C 224.897 308.745,220.950 308.330,220.591 306.456 C 220.480 305.875,220.105 304.590,219.759 303.600 C 219.412 302.610,218.962 300.720,218.758 299.400 C 218.554 298.080,218.131 296.280,217.819 295.400 C 217.507 294.520,217.141 292.676,217.006 291.302 C 216.871 289.928,216.500 288.179,216.180 287.415 C 215.861 286.651,215.600 285.385,215.600 284.603 C 215.600 283.820,215.240 282.156,214.800 280.904 C 214.360 279.652,214.000 277.975,214.000 277.176 C 214.000 276.378,213.640 274.679,213.200 273.400 C 212.760 272.121,212.400 270.321,212.400 269.400 C 212.400 268.479,212.040 266.679,211.600 265.400 C 211.160 264.121,210.800 262.377,210.800 261.525 C 210.800 260.672,210.529 259.325,210.197 258.531 C 209.865 257.737,209.489 256.078,209.361 254.844 C 209.234 253.610,208.891 251.790,208.599 250.800 C 208.307 249.810,207.958 248.063,207.823 246.918 C 207.688 245.773,207.312 244.085,206.989 243.168 C 206.665 242.250,206.400 241.021,206.400 240.437 C 206.400 239.852,206.129 238.390,205.798 237.187 C 205.467 235.984,204.944 233.560,204.636 231.800 C 204.328 230.040,203.879 228.093,203.638 227.474 C 203.397 226.855,203.192 225.685,203.182 224.874 C 203.173 224.063,202.900 222.680,202.576 221.800 C 202.252 220.920,201.825 218.970,201.627 217.467 C 201.114 213.578,199.836 213.728,198.796 217.800 C 198.571 218.680,198.132 219.940,197.819 220.600 C 197.507 221.260,197.133 222.397,196.988 223.127 C 196.843 223.857,196.473 224.937,196.165 225.527 C 195.857 226.117,195.604 226.922,195.602 227.316 C 195.601 227.710,195.240 228.738,194.800 229.600 C 194.360 230.462,193.994 231.490,193.986 231.884 C 193.979 232.278,193.625 233.320,193.200 234.200 C 192.775 235.080,192.421 236.109,192.414 236.486 C 192.406 236.864,192.143 237.764,191.830 238.486 C 191.199 239.938,190.250 242.777,189.409 245.723 C 189.107 246.780,188.683 247.860,188.466 248.123 C 188.249 248.385,187.941 249.320,187.782 250.200 C 187.623 251.080,187.247 252.286,186.947 252.880 C 186.646 253.474,186.400 254.287,186.400 254.686 C 186.400 255.085,186.040 256.084,185.600 256.904 C 185.160 257.725,184.800 258.765,184.800 259.214 C 184.800 259.664,184.440 260.738,184.000 261.600 C 183.560 262.462,183.200 263.583,183.200 264.090 C 183.200 264.597,182.840 265.684,182.400 266.504 C 181.960 267.325,181.600 268.408,181.600 268.910 C 181.600 269.411,181.301 270.249,180.935 270.771 C 180.570 271.293,180.134 272.368,179.966 273.160 C 179.589 274.945,178.519 278.071,177.540 280.244 C 177.133 281.148,176.800 282.274,176.800 282.745 C 176.800 283.217,176.440 284.275,176.000 285.096 C 175.560 285.916,175.200 287.046,175.200 287.605 C 175.200 288.164,174.945 288.986,174.633 289.431 C 174.321 289.877,173.934 290.952,173.773 291.820 C 173.611 292.689,173.247 293.760,172.962 294.200 C 172.678 294.640,172.267 295.720,172.050 296.600 C 170.940 301.098,169.580 303.384,166.813 305.404 C 165.911 306.062,164.813 306.897,164.372 307.260 C 162.213 309.037,134.846 310.223,128.706 308.806 C 127.768 308.590,126.500 308.315,125.890 308.196 C 124.098 307.847,123.415 306.786,122.663 303.185 C 122.274 301.323,121.772 298.990,121.547 298.000 C 121.321 297.010,120.894 294.727,120.597 292.927 C 120.300 291.126,119.882 289.326,119.668 288.927 C 119.454 288.527,119.162 287.300,119.019 286.200 C 118.876 285.100,118.420 282.850,118.007 281.200 C 117.209 278.009,116.745 275.745,115.835 270.595 C 115.524 268.832,115.081 266.942,114.851 266.395 C 114.622 265.848,114.248 264.230,114.022 262.800 C 113.796 261.370,113.338 259.216,113.005 258.013 C 112.672 256.810,112.400 255.348,112.400 254.763 C 112.400 254.179,112.146 252.980,111.835 252.099 C 111.524 251.218,111.138 249.446,110.978 248.161 C 110.817 246.876,110.459 245.279,110.182 244.612 C 109.905 243.946,109.548 242.320,109.389 241.000 C 109.230 239.680,108.942 238.296,108.749 237.925 C 108.557 237.554,108.209 235.888,107.978 234.222 C 107.746 232.557,107.296 230.571,106.978 229.810 C 106.660 229.048,106.400 227.918,106.400 227.297 C 106.400 226.676,106.108 225.095,105.752 223.784 C 105.395 222.473,104.888 220.097,104.623 218.505 C 104.070 215.171,104.080 215.187,102.940 215.619 C 102.318 215.855,102.003 216.423,101.801 217.672 C 101.648 218.623,101.294 219.763,101.014 220.206 C 100.734 220.649,100.380 221.639,100.227 222.406 C 100.074 223.173,99.714 224.340,99.428 225.000 C 98.765 226.526,97.707 229.640,96.995 232.159 C 96.690 233.237,96.252 234.308,96.021 234.539 C 95.789 234.771,95.600 235.422,95.600 235.986 C 95.600 236.550,95.240 237.684,94.800 238.504 C 94.360 239.325,94.000 240.279,94.000 240.624 C 94.000 240.969,93.669 242.095,93.265 243.126 C 92.197 245.850,91.198 248.793,90.787 250.426 C 90.590 251.211,90.154 252.381,89.817 253.026 C 89.480 253.672,89.204 254.524,89.202 254.920 C 89.201 255.316,88.900 256.216,88.533 256.920 C 88.165 257.624,87.727 258.830,87.559 259.600 C 87.173 261.368,86.111 264.635,85.413 266.200 C 84.869 267.421,84.005 269.959,83.031 273.200 C 82.414 275.253,81.797 277.016,80.790 279.600 C 80.404 280.590,79.587 283.020,78.975 285.000 C 78.363 286.980,77.734 288.780,77.577 289.000 C 77.420 289.220,77.163 290.030,77.004 290.800 C 76.845 291.570,76.477 292.740,76.185 293.400 C 75.893 294.060,75.116 296.174,74.457 298.098 C 73.799 300.023,72.977 301.880,72.630 302.227 C 72.284 302.574,72.000 303.017,72.000 303.211 C 72.000 304.322,66.489 307.903,63.800 308.539 C 59.646 309.523,34.722 309.515,31.177 308.530 C 25.850 307.049,25.036 302.474,28.628 294.200 C 28.914 293.540,29.268 292.370,29.414 291.600 C 29.559 290.830,29.918 289.821,30.210 289.358 C 30.503 288.896,30.865 287.816,31.016 286.958 C 31.166 286.101,31.536 285.007,31.837 284.526 C 32.138 284.045,32.558 282.965,32.769 282.126 C 33.315 279.965,34.358 276.809,34.993 275.400 C 35.290 274.740,35.644 273.660,35.780 273.000 C 35.916 272.340,36.280 271.260,36.588 270.600 C 37.232 269.220,38.266 266.112,38.840 263.833 C 39.057 262.971,39.474 261.801,39.768 261.233 C 40.374 260.058,43.039 252.206,43.642 249.816 C 43.862 248.944,44.181 248.044,44.352 247.816 C 44.522 247.587,45.161 245.780,45.771 243.800 C 46.381 241.820,47.222 239.430,47.640 238.489 C 48.058 237.548,48.406 236.468,48.414 236.089 C 48.421 235.710,48.775 234.680,49.200 233.800 C 49.625 232.920,49.979 231.867,49.986 231.460 C 49.994 231.054,50.258 230.154,50.574 229.460 C 50.890 228.767,51.334 227.570,51.561 226.800 C 51.788 226.030,52.798 223.060,53.805 220.200 C 54.813 217.340,55.872 214.186,56.158 213.191 C 56.445 212.196,56.868 211.026,57.098 210.591 C 57.329 210.156,58.067 208.090,58.740 206.000 C 60.620 200.158,62.432 194.787,63.193 192.800 C 64.050 190.563,65.143 187.384,65.600 185.800 C 66.212 183.678,67.289 180.647,68.055 178.889 C 68.465 177.948,68.800 176.773,68.800 176.278 C 68.800 175.783,69.064 175.001,69.386 174.541 C 69.709 174.081,70.149 173.005,70.364 172.152 C 70.884 170.085,71.904 167.027,72.838 164.726 C 73.257 163.695,73.600 162.502,73.600 162.075 C 73.600 161.648,73.846 161.094,74.146 160.845 C 74.447 160.595,74.803 159.582,74.939 158.593 C 75.075 157.603,75.441 156.390,75.753 155.897 C 76.066 155.404,76.447 154.370,76.600 153.600 C 76.753 152.830,77.118 151.821,77.410 151.358 C 77.703 150.896,78.072 149.816,78.231 148.958 C 78.390 148.101,78.743 147.040,79.015 146.600 C 79.288 146.160,79.634 145.099,79.784 144.242 C 79.935 143.384,80.297 142.304,80.590 141.842 C 80.882 141.379,81.253 140.373,81.413 139.606 C 81.574 138.839,81.931 137.849,82.208 137.406 C 82.484 136.963,82.835 135.889,82.988 135.020 C 83.141 134.152,83.521 133.077,83.833 132.631 C 84.145 132.186,84.400 131.405,84.400 130.895 C 84.400 130.385,84.760 129.262,85.200 128.400 C 85.640 127.538,86.001 126.420,86.003 125.916 C 86.004 125.412,86.363 124.460,86.800 123.800 C 87.237 123.140,87.599 122.150,87.603 121.600 C 87.608 121.050,87.871 120.150,88.189 119.600 C 88.506 119.050,88.934 118.240,89.140 117.800 C 89.860 116.262,93.259 113.230,95.396 112.219 L 97.550 111.200 114.428 111.200 C 135.160 111.200,134.625 111.019,136.158 118.536 C 136.509 120.261,136.904 121.844,137.034 122.055 C 137.164 122.265,137.510 123.824,137.802 125.519 C 138.427 129.142,139.415 134.032,140.203 137.400 C 140.512 138.720,141.144 141.690,141.608 144.000 C 142.409 147.993,142.834 150.001,144.737 158.800 C 145.189 160.890,145.841 163.950,146.186 165.600 C 146.530 167.250,147.080 169.860,147.408 171.400 C 147.735 172.940,148.271 175.610,148.598 177.333 C 148.926 179.056,149.294 180.628,149.417 180.827 C 149.539 181.025,149.894 182.765,150.205 184.694 C 150.516 186.622,150.951 188.920,151.172 189.800 C 152.254 194.115,152.925 197.224,153.258 199.463 C 154.059 204.860,155.501 207.467,156.097 204.597 C 156.262 203.802,156.620 202.758,156.892 202.276 C 157.164 201.794,157.596 200.590,157.851 199.600 C 158.360 197.620,158.935 195.933,160.030 193.200 C 160.427 192.210,160.857 190.743,160.986 189.940 C 161.115 189.137,161.486 188.260,161.811 187.991 C 162.135 187.722,162.401 186.939,162.401 186.251 C 162.402 185.563,162.762 184.411,163.201 183.690 C 163.641 182.970,164.000 181.977,164.000 181.484 C 164.000 180.991,164.360 179.916,164.800 179.096 C 165.240 178.275,165.600 177.235,165.600 176.786 C 165.600 176.336,165.960 175.262,166.400 174.400 C 166.840 173.538,167.200 172.464,167.200 172.014 C 167.200 171.565,167.560 170.525,168.000 169.704 C 168.440 168.884,168.800 167.847,168.800 167.400 C 168.800 166.953,169.160 165.916,169.600 165.096 C 170.040 164.275,170.400 163.192,170.400 162.690 C 170.400 162.189,170.655 161.414,170.967 160.969 C 171.279 160.523,171.665 159.448,171.826 158.580 C 171.986 157.711,172.451 156.373,172.859 155.606 C 173.266 154.839,173.601 153.849,173.602 153.406 C 173.604 152.963,173.880 152.072,174.217 151.426 C 174.554 150.781,174.990 149.611,175.187 148.826 C 175.687 146.836,176.783 143.703,177.660 141.756 C 178.067 140.852,178.400 139.808,178.400 139.436 C 178.400 139.064,178.655 138.268,178.966 137.666 C 179.277 137.065,179.660 135.859,179.816 134.986 C 179.973 134.114,180.333 133.130,180.617 132.800 C 180.900 132.470,181.261 131.480,181.419 130.600 C 181.576 129.720,181.893 128.640,182.122 128.200 C 182.351 127.760,182.766 126.410,183.044 125.200 C 185.998 112.332,189.731 110.393,211.529 110.408 C 230.231 110.420,232.186 111.131,232.959 118.200 C 233.103 119.520,233.478 121.320,233.793 122.200 C 234.108 123.080,234.373 124.452,234.382 125.248 C 234.392 126.044,234.760 127.823,235.200 129.200 C 235.640 130.577,236.000 132.315,236.000 133.062 C 236.000 133.809,236.360 135.444,236.800 136.696 C 237.240 137.948,237.602 139.609,237.605 140.386 C 237.608 141.164,237.968 142.941,238.405 144.336 C 238.842 145.730,239.200 147.446,239.200 148.150 C 239.200 148.853,239.560 150.452,240.000 151.704 C 240.440 152.956,240.800 154.683,240.800 155.541 C 240.800 156.400,241.057 157.717,241.371 158.468 C 241.685 159.220,242.067 160.997,242.221 162.417 C 242.375 163.838,242.740 165.586,243.031 166.302 C 243.322 167.018,243.688 168.728,243.843 170.102 C 243.998 171.476,244.347 173.140,244.618 173.800 C 244.889 174.460,245.233 175.990,245.383 177.200 C 245.532 178.410,245.896 180.210,246.192 181.200 C 246.487 182.190,246.834 184.010,246.961 185.244 C 247.089 186.478,247.441 188.098,247.744 188.844 C 248.047 189.590,248.407 191.210,248.544 192.444 C 248.681 193.678,249.065 195.337,249.397 196.131 C 249.729 196.925,250.006 198.345,250.013 199.287 C 250.020 200.229,250.374 201.990,250.800 203.200 C 251.226 204.410,251.580 206.079,251.587 206.910 C 251.594 207.740,251.960 209.444,252.400 210.696 C 252.840 211.948,253.200 213.519,253.200 214.187 C 253.200 214.856,253.560 216.661,254.000 218.200 C 254.440 219.739,254.800 221.576,254.800 222.284 C 254.800 222.991,255.160 224.484,255.600 225.600 C 256.040 226.716,256.413 228.388,256.428 229.315 C 256.486 232.796,257.871 233.007,259.511 229.786 C 261.508 225.865,263.396 222.303,264.807 219.800 C 265.675 218.260,266.744 216.280,267.183 215.400 C 267.622 214.520,268.785 212.360,269.768 210.600 C 271.974 206.648,272.528 205.622,275.165 200.600 C 276.320 198.400,277.692 195.880,278.213 195.000 C 278.735 194.120,279.275 193.130,279.413 192.800 C 279.957 191.504,280.454 190.535,281.364 189.000 C 282.507 187.071,283.399 185.443,285.198 182.000 C 285.945 180.570,286.677 179.310,286.825 179.200 C 286.972 179.090,287.228 178.550,287.393 178.000 C 287.559 177.450,287.929 176.730,288.216 176.400 C 288.503 176.070,288.865 175.290,289.020 174.668 C 289.176 174.045,289.534 173.447,289.815 173.339 C 290.097 173.231,290.448 172.660,290.595 172.071 C 290.742 171.482,291.097 170.730,291.384 170.400 C 291.671 170.070,292.042 169.353,292.209 168.808 C 292.376 168.262,292.809 167.362,293.172 166.808 C 294.194 165.248,294.684 164.404,296.200 161.600 C 297.573 159.059,297.980 158.325,298.805 156.900 C 299.028 156.515,299.553 155.455,299.972 154.544 C 300.391 153.633,300.929 152.768,301.167 152.620 C 301.405 152.473,301.600 152.016,301.600 151.605 C 301.600 151.194,301.857 150.601,302.170 150.287 C 302.484 149.973,303.017 149.105,303.354 148.358 C 303.692 147.611,304.687 145.740,305.565 144.200 C 306.444 142.660,307.835 140.140,308.657 138.600 C 310.535 135.079,311.234 133.783,313.401 129.800 C 314.358 128.040,315.791 125.340,316.585 123.800 C 317.378 122.260,318.464 120.280,318.997 119.400 C 320.677 116.624,320.463 116.300,316.600 115.772 C 310.832 114.985,308.082 107.660,311.868 103.169 C 312.161 102.821,312.400 102.338,312.400 102.094 C 312.400 101.470,317.170 97.329,319.041 96.329 C 319.898 95.871,321.109 95.070,321.731 94.548 C 322.353 94.027,323.029 93.600,323.235 93.600 C 323.440 93.600,324.505 92.970,325.600 92.200 C 326.695 91.430,327.710 90.800,327.854 90.800 C 327.999 90.800,329.126 90.147,330.359 89.348 C 331.591 88.550,333.230 87.495,334.000 87.005 C 334.770 86.514,336.568 85.368,337.997 84.457 C 339.425 83.545,340.811 82.800,341.077 82.800 C 341.343 82.800,341.704 82.563,341.880 82.273 C 342.056 81.983,343.245 81.128,344.523 80.373 C 348.596 77.966,351.747 75.994,354.000 74.440 C 355.103 73.680,359.059 71.323,360.729 70.432 C 361.314 70.119,362.033 69.624,362.325 69.332 C 362.618 69.039,363.159 68.793,363.529 68.783 C 363.898 68.774,365.100 68.419,366.200 67.994 C 368.670 67.039,371.843 67.204,374.347 68.417 " stroke="none" fill="#f7f5f3" fill-rule="evenodd"></path><path id="path2" d="M366.200 67.994 C 365.100 68.419,363.898 68.774,363.529 68.783 C 363.159 68.793,362.618 69.039,362.325 69.332 C 362.033 69.624,361.314 70.119,360.729 70.432 C 359.059 71.323,355.103 73.680,354.000 74.440 C 351.747 75.994,348.596 77.966,344.523 80.373 C 343.245 81.128,342.056 81.983,341.880 82.273 C 341.704 82.563,341.343 82.800,341.077 82.800 C 340.811 82.800,339.425 83.545,337.997 84.457 C 336.568 85.368,334.770 86.514,334.000 87.005 C 333.230 87.495,331.591 88.550,330.359 89.348 C 329.126 90.147,327.999 90.800,327.854 90.800 C 327.710 90.800,326.695 91.430,325.600 92.200 C 324.505 92.970,323.440 93.600,323.235 93.600 C 323.029 93.600,322.353 94.027,321.731 94.548 C 321.109 95.070,319.898 95.871,319.041 96.329 C 317.170 97.329,312.400 101.470,312.400 102.094 C 312.400 102.338,312.161 102.821,311.868 103.169 C 308.082 107.660,310.832 114.985,316.600 115.772 C 320.463 116.300,320.677 116.624,318.997 119.400 C 318.464 120.280,317.378 122.260,316.585 123.800 C 315.791 125.340,314.358 128.040,313.401 129.800 C 311.234 133.783,310.535 135.079,308.657 138.600 C 307.835 140.140,306.444 142.660,305.565 144.200 C 304.687 145.740,303.692 147.611,303.354 148.358 C 303.017 149.105,302.484 149.973,302.170 150.287 C 301.857 150.601,301.600 151.194,301.600 151.605 C 301.600 152.016,301.405 152.473,301.167 152.620 C 300.929 152.768,300.391 153.633,299.972 154.544 C 299.553 155.455,299.028 156.515,298.805 156.900 C 297.980 158.325,297.573 159.059,296.200 161.600 C 294.684 164.404,294.194 165.248,293.172 166.808 C 292.809 167.362,292.376 168.262,292.209 168.808 C 292.042 169.353,291.671 170.070,291.384 170.400 C 291.097 170.730,290.742 171.482,290.595 172.071 C 290.448 172.660,290.097 173.231,289.815 173.339 C 289.534 173.447,289.176 174.045,289.020 174.668 C 288.865 175.290,288.503 176.070,288.216 176.400 C 287.929 176.730,287.559 177.450,287.393 178.000 C 287.228 178.550,286.972 179.090,286.825 179.200 C 286.677 179.310,285.945 180.570,285.198 182.000 C 283.399 185.443,282.507 187.071,281.364 189.000 C 280.454 190.535,279.957 191.504,279.413 192.800 C 279.275 193.130,278.735 194.120,278.213 195.000 C 277.692 195.880,276.320 198.400,275.165 200.600 C 272.528 205.622,271.974 206.648,269.768 210.600 C 268.785 212.360,267.622 214.520,267.183 215.400 C 266.744 216.280,265.675 218.260,264.807 219.800 C 263.396 222.303,261.508 225.865,259.511 229.786 C 257.871 233.007,256.486 232.796,256.428 229.315 C 256.413 228.388,256.040 226.716,255.600 225.600 C 255.160 224.484,254.800 222.991,254.800 222.284 C 254.800 221.576,254.440 219.739,254.000 218.200 C 253.560 216.661,253.200 214.856,253.200 214.187 C 253.200 213.519,252.840 211.948,252.400 210.696 C 251.960 209.444,251.594 207.740,251.587 206.910 C 251.580 206.079,251.226 204.410,250.800 203.200 C 250.374 201.990,250.020 200.229,250.013 199.287 C 250.006 198.345,249.729 196.925,249.397 196.131 C 249.065 195.337,248.681 193.678,248.544 192.444 C 248.407 191.210,248.047 189.590,247.744 188.844 C 247.441 188.098,247.089 186.478,246.961 185.244 C 246.834 184.010,246.487 182.190,246.192 181.200 C 245.896 180.210,245.532 178.410,245.383 177.200 C 245.233 175.990,244.889 174.460,244.618 173.800 C 244.347 173.140,243.998 171.476,243.843 170.102 C 243.688 168.728,243.322 167.018,243.031 166.302 C 242.740 165.586,242.375 163.838,242.221 162.417 C 242.067 160.997,241.685 159.220,241.371 158.468 C 241.057 157.717,240.800 156.400,240.800 155.541 C 240.800 154.683,240.440 152.956,240.000 151.704 C 239.560 150.452,239.200 148.853,239.200 148.150 C 239.200 147.446,238.842 145.730,238.405 144.336 C 237.968 142.941,237.608 141.164,237.605 140.386 C 237.602 139.609,237.240 137.948,236.800 136.696 C 236.360 135.444,236.000 133.809,236.000 133.062 C 236.000 132.315,235.640 130.577,235.200 129.200 C 234.760 127.823,234.392 126.044,234.382 125.248 C 234.373 124.452,234.108 123.080,233.793 122.200 C 233.478 121.320,233.103 119.520,232.959 118.200 C 232.186 111.131,230.231 110.420,211.529 110.408 C 189.731 110.393,185.998 112.332,183.044 125.200 C 182.766 126.410,182.327 127.793,182.069 128.274 C 181.492 129.348,181.407 130.924,181.974 130.028 C 182.238 129.611,182.401 129.882,182.573 131.028 C 182.703 131.892,183.000 133.320,183.233 134.200 C 183.466 135.080,183.888 137.150,184.171 138.800 C 184.454 140.450,184.875 142.262,185.105 142.826 C 185.335 143.390,185.654 144.920,185.813 146.226 C 185.972 147.532,186.336 149.061,186.623 149.625 C 186.909 150.189,187.261 151.809,187.404 153.225 C 187.547 154.641,187.897 156.430,188.181 157.200 C 188.465 157.970,188.825 159.648,188.981 160.929 C 189.137 162.209,189.503 163.829,189.793 164.529 C 190.084 165.228,190.452 166.880,190.611 168.200 C 190.770 169.520,191.058 170.904,191.251 171.275 C 191.443 171.646,191.796 173.351,192.034 175.064 C 192.272 176.777,192.644 178.508,192.859 178.911 C 193.075 179.314,193.498 181.029,193.799 182.722 C 194.100 184.415,194.552 186.700,194.804 187.800 C 195.937 192.757,196.554 195.587,197.028 198.000 C 197.584 200.831,198.113 203.185,199.093 207.200 C 200.147 211.522,200.184 213.672,199.234 215.533 C 198.775 216.432,198.416 217.490,198.436 217.884 C 198.456 218.284,198.633 218.070,198.837 217.400 C 199.962 213.696,201.133 213.724,201.627 217.467 C 201.825 218.970,202.252 220.920,202.576 221.800 C 202.900 222.680,203.173 224.063,203.182 224.874 C 203.192 225.685,203.397 226.855,203.638 227.474 C 203.879 228.093,204.328 230.040,204.636 231.800 C 204.944 233.560,205.467 235.984,205.798 237.187 C 206.129 238.390,206.400 239.852,206.400 240.437 C 206.400 241.021,206.665 242.250,206.989 243.168 C 207.312 244.085,207.688 245.773,207.823 246.918 C 207.958 248.063,208.307 249.810,208.599 250.800 C 208.891 251.790,209.234 253.610,209.361 254.844 C 209.489 256.078,209.865 257.737,210.197 258.531 C 210.529 259.325,210.800 260.672,210.800 261.525 C 210.800 262.377,211.160 264.121,211.600 265.400 C 212.040 266.679,212.400 268.479,212.400 269.400 C 212.400 270.321,212.760 272.121,213.200 273.400 C 213.640 274.679,214.000 276.378,214.000 277.176 C 214.000 277.975,214.360 279.652,214.800 280.904 C 215.240 282.156,215.600 283.820,215.600 284.603 C 215.600 285.385,215.861 286.651,216.180 287.415 C 216.500 288.179,216.871 289.928,217.006 291.302 C 217.141 292.676,217.507 294.520,217.819 295.400 C 218.131 296.280,218.554 298.080,218.758 299.400 C 218.962 300.720,219.412 302.610,219.759 303.600 C 220.105 304.590,220.480 305.875,220.591 306.456 C 220.950 308.330,224.897 308.745,243.800 308.897 C 262.508 309.048,264.936 308.045,270.114 298.025 C 270.974 296.361,272.332 293.830,273.133 292.400 C 273.934 290.970,275.221 288.600,275.994 287.133 C 277.704 283.890,279.591 280.413,280.952 278.000 C 281.510 277.010,282.621 274.940,283.421 273.400 C 284.220 271.860,285.305 269.880,285.832 269.000 C 286.358 268.120,287.146 266.680,287.583 265.800 C 288.020 264.920,289.381 262.400,290.608 260.200 C 291.834 258.000,293.119 255.570,293.464 254.800 C 293.808 254.030,294.229 253.310,294.400 253.200 C 294.571 253.090,294.997 252.370,295.347 251.600 C 295.697 250.830,296.196 249.840,296.455 249.400 C 297.337 247.903,297.610 247.401,298.413 245.800 C 298.854 244.920,299.925 242.940,300.793 241.400 C 301.661 239.860,303.030 237.340,303.837 235.800 C 306.388 230.926,306.712 230.361,307.363 229.641 C 307.713 229.254,308.012 228.681,308.027 228.369 C 308.041 228.056,308.583 226.900,309.230 225.800 C 309.877 224.700,310.678 223.260,311.010 222.600 C 311.597 221.429,311.980 220.727,312.805 219.300 C 313.028 218.915,313.566 217.880,314.000 217.000 C 314.829 215.322,315.302 214.506,316.484 212.716 C 316.878 212.120,317.200 211.368,317.200 211.045 C 317.200 210.722,317.457 210.201,317.770 209.887 C 318.084 209.573,318.626 208.705,318.974 207.958 C 319.322 207.211,320.344 205.250,321.245 203.600 C 322.145 201.950,323.503 199.430,324.263 198.000 C 325.022 196.570,326.100 194.590,326.657 193.600 C 327.215 192.610,328.294 190.630,329.055 189.200 C 332.636 182.470,334.388 179.225,335.535 177.200 C 336.221 175.990,337.115 174.370,337.523 173.600 C 337.931 172.830,338.860 171.120,339.587 169.800 C 340.314 168.480,341.535 166.230,342.301 164.800 C 343.067 163.370,344.010 161.660,344.396 161.000 C 345.053 159.879,346.379 157.413,349.993 150.600 C 350.809 149.060,352.036 146.810,352.719 145.600 C 353.402 144.390,354.676 142.050,355.550 140.400 C 358.202 135.392,359.877 132.291,360.951 130.400 C 361.513 129.410,362.234 128.029,362.553 127.332 C 363.475 125.315,364.502 124.983,367.250 125.815 C 372.219 127.319,379.585 123.608,383.114 117.822 C 384.800 115.058,385.151 109.071,383.854 105.191 C 383.525 104.206,383.131 101.870,382.978 100.000 C 382.826 98.130,382.475 96.044,382.198 95.364 C 381.921 94.684,381.571 92.794,381.420 91.164 C 381.270 89.534,380.898 87.300,380.593 86.200 C 380.289 85.100,379.924 82.940,379.782 81.400 C 379.641 79.860,379.281 77.610,378.983 76.400 C 378.685 75.190,378.336 73.570,378.208 72.800 C 377.528 68.713,371.049 66.120,366.200 67.994 M96.039 111.889 C 95.290 112.257,94.891 112.630,95.152 112.717 C 95.412 112.804,96.064 112.588,96.599 112.238 C 97.450 111.680,99.671 111.600,114.358 111.600 C 133.371 111.600,132.954 111.531,134.618 114.943 C 135.032 115.792,135.437 116.288,135.519 116.044 C 135.767 115.300,134.037 112.888,132.633 112.020 C 130.766 110.866,98.351 110.750,96.039 111.889 M91.611 114.900 C 90.454 116.055,89.341 117.360,89.137 117.800 C 88.933 118.240,88.506 119.050,88.189 119.600 C 87.871 120.150,87.608 121.050,87.603 121.600 C 87.599 122.150,87.237 123.140,86.800 123.800 C 86.363 124.460,86.004 125.412,86.003 125.916 C 86.001 126.420,85.640 127.538,85.200 128.400 C 84.760 129.262,84.400 130.391,84.400 130.908 C 84.400 131.424,84.136 132.196,83.813 132.624 C 82.930 133.791,83.082 134.259,84.000 133.200 C 84.440 132.693,84.801 131.720,84.803 131.039 C 84.804 130.357,85.163 129.260,85.600 128.600 C 86.037 127.940,86.396 126.828,86.397 126.129 C 86.399 125.429,86.674 124.583,87.008 124.249 C 87.343 123.914,87.762 122.866,87.939 121.920 C 88.353 119.711,89.972 117.165,92.511 114.731 C 93.619 113.669,94.342 112.800,94.120 112.800 C 93.897 112.800,92.768 113.745,91.611 114.900 M136.437 121.000 C 136.423 121.220,136.667 122.210,136.979 123.200 C 137.291 124.190,137.545 124.640,137.543 124.200 C 137.539 123.366,136.479 120.300,136.437 121.000 M137.693 126.800 C 137.693 127.570,137.775 127.885,137.876 127.500 C 137.976 127.115,137.976 126.485,137.876 126.100 C 137.775 125.715,137.693 126.030,137.693 126.800 M138.056 128.800 C 138.056 129.130,138.211 129.760,138.400 130.200 C 138.617 130.704,138.744 130.778,138.744 130.400 C 138.744 130.070,138.589 129.440,138.400 129.000 C 138.183 128.496,138.056 128.422,138.056 128.800 M181.246 131.451 C 181.221 131.919,180.930 132.526,180.600 132.800 C 180.270 133.074,180.000 133.678,180.000 134.143 C 180.000 134.780,180.203 134.610,180.822 133.455 C 181.274 132.612,181.565 131.624,181.468 131.261 C 181.341 130.783,181.280 130.836,181.246 131.451 M82.800 135.724 C 82.800 136.231,82.536 136.996,82.213 137.424 C 81.890 137.851,81.634 138.470,81.644 138.800 C 81.661 139.326,81.692 139.326,81.896 138.807 C 82.024 138.481,82.370 137.973,82.664 137.679 C 83.164 137.179,83.442 134.800,83.000 134.800 C 82.890 134.800,82.800 135.216,82.800 135.724 M179.275 136.666 C 178.987 137.510,178.678 138.650,178.590 139.200 C 178.492 139.804,178.520 139.890,178.660 139.417 C 178.787 138.986,179.154 138.231,179.476 137.740 C 179.798 137.248,180.003 136.461,179.931 135.990 C 179.828 135.315,179.688 135.460,179.275 136.666 M139.656 136.400 C 139.656 136.730,139.811 137.360,140.000 137.800 C 140.217 138.304,140.344 138.378,140.344 138.000 C 140.344 137.670,140.189 137.040,140.000 136.600 C 139.783 136.096,139.656 136.022,139.656 136.400 M81.254 140.224 C 81.225 140.676,80.936 141.396,80.613 141.824 C 80.290 142.251,80.023 142.870,80.019 143.200 C 80.016 143.530,80.384 143.222,80.837 142.515 C 81.295 141.799,81.582 140.825,81.484 140.315 C 81.328 139.499,81.303 139.489,81.254 140.224 M177.454 141.981 C 177.044 142.830,176.805 143.766,176.922 144.062 C 177.066 144.423,177.147 144.365,177.168 143.886 C 177.186 143.493,177.487 142.734,177.838 142.199 C 178.188 141.664,178.413 141.048,178.338 140.832 C 178.262 140.615,177.864 141.132,177.454 141.981 M79.654 144.824 C 79.625 145.386,79.336 146.196,79.013 146.624 C 78.690 147.051,78.424 147.760,78.422 148.200 C 78.419 148.671,78.750 148.267,79.226 147.218 C 79.670 146.238,79.961 145.068,79.872 144.618 C 79.742 143.964,79.698 144.005,79.654 144.824 M175.864 146.587 C 175.459 147.575,175.220 148.612,175.332 148.892 C 175.456 149.200,175.549 149.119,175.568 148.686 C 175.586 148.293,175.885 147.537,176.233 147.006 C 176.581 146.474,176.806 145.758,176.733 145.415 C 176.659 145.069,176.272 145.591,175.864 146.587 M78.034 149.800 C 78.001 150.240,77.710 150.949,77.387 151.376 C 77.064 151.804,76.800 152.431,76.800 152.771 C 76.800 153.110,77.170 152.698,77.622 151.855 C 78.074 151.012,78.365 150.024,78.268 149.661 C 78.132 149.147,78.080 149.178,78.034 149.800 M174.294 151.203 C 173.912 152.084,173.608 153.119,173.618 153.503 C 173.633 154.111,174.415 152.389,175.073 150.300 C 175.475 149.024,175.000 149.575,174.294 151.203 M142.856 151.600 C 142.856 151.930,143.011 152.560,143.200 153.000 C 143.417 153.504,143.544 153.578,143.544 153.200 C 143.544 152.870,143.389 152.240,143.200 151.800 C 142.983 151.296,142.856 151.222,142.856 151.600 M76.400 154.324 C 76.400 154.721,76.136 155.396,75.813 155.824 C 75.490 156.251,75.234 156.870,75.244 157.200 C 75.261 157.726,75.292 157.726,75.496 157.207 C 75.624 156.881,75.970 156.373,76.264 156.079 C 76.768 155.575,77.035 153.600,76.600 153.600 C 76.490 153.600,76.400 153.926,76.400 154.324 M172.654 155.981 C 172.244 156.830,172.005 157.766,172.122 158.062 C 172.266 158.423,172.347 158.365,172.368 157.886 C 172.386 157.493,172.687 156.734,173.038 156.199 C 173.388 155.664,173.613 155.048,173.538 154.832 C 173.462 154.615,173.064 155.132,172.654 155.981 M144.057 157.400 C 144.061 158.234,145.121 161.300,145.163 160.600 C 145.177 160.380,144.933 159.390,144.621 158.400 C 144.309 157.410,144.055 156.960,144.057 157.400 M171.634 159.400 C 171.601 159.840,171.310 160.549,170.987 160.976 C 170.664 161.404,170.425 162.214,170.454 162.776 L 170.509 163.800 170.692 162.829 C 170.792 162.295,171.142 161.449,171.470 160.949 C 171.798 160.449,171.982 159.715,171.880 159.320 C 171.715 158.686,171.686 158.696,171.634 159.400 M74.080 160.880 C 73.816 161.144,73.621 161.729,73.646 162.180 C 73.692 162.983,73.697 162.984,73.889 162.200 C 73.998 161.760,74.269 161.175,74.492 160.900 C 75.010 160.262,74.712 160.248,74.080 160.880 M72.700 164.900 C 71.751 167.217,71.816 167.731,72.822 165.855 C 73.274 165.012,73.589 164.067,73.522 163.756 C 73.455 163.445,73.085 163.960,72.700 164.900 M169.657 164.857 C 169.375 165.309,169.232 165.766,169.340 165.873 C 169.447 165.981,169.744 165.678,170.000 165.200 C 170.256 164.722,170.398 164.265,170.317 164.184 C 170.236 164.103,169.939 164.406,169.657 164.857 M146.068 166.400 C 146.088 167.439,146.718 169.146,146.732 168.200 C 146.738 167.760,146.589 167.040,146.400 166.600 C 146.189 166.110,146.061 166.032,146.068 166.400 M168.854 167.206 C 168.825 167.759,168.440 168.884,168.000 169.704 C 167.560 170.525,167.221 171.603,167.247 172.099 C 167.292 172.957,167.308 172.953,167.568 172.000 C 167.718 171.450,168.157 170.307,168.543 169.459 C 168.929 168.612,169.169 167.532,169.077 167.059 C 168.930 166.306,168.902 166.324,168.854 167.206 M71.348 169.004 C 70.950 170.297,70.967 170.405,71.482 169.889 C 71.805 169.566,72.009 168.904,71.935 168.418 C 71.826 167.701,71.714 167.812,71.348 169.004 M147.233 172.400 C 147.221 172.730,147.467 173.810,147.779 174.800 C 148.091 175.790,148.356 176.330,148.367 176.000 C 148.379 175.670,148.133 174.590,147.821 173.600 C 147.509 172.610,147.244 172.070,147.233 172.400 M69.454 174.381 C 69.044 175.230,68.805 176.166,68.922 176.462 C 69.066 176.823,69.147 176.765,69.168 176.286 C 69.186 175.893,69.487 175.134,69.838 174.599 C 70.188 174.064,70.413 173.448,70.338 173.232 C 70.262 173.015,69.864 173.532,69.454 174.381 M166.272 174.619 C 165.902 175.393,165.600 176.437,165.600 176.937 C 165.600 177.438,165.336 178.196,165.013 178.624 C 164.690 179.051,164.421 179.580,164.415 179.800 C 164.410 180.020,164.763 179.660,165.200 179.000 C 165.637 178.340,165.996 177.386,165.997 176.880 C 165.999 176.374,166.283 175.412,166.629 174.743 C 166.976 174.073,167.188 173.455,167.101 173.368 C 167.014 173.281,166.641 173.844,166.272 174.619 M67.838 179.115 C 67.438 180.003,67.206 180.971,67.323 181.265 C 67.452 181.587,67.549 181.477,67.568 180.989 C 67.586 180.543,67.883 179.773,68.230 179.279 C 68.576 178.784,68.794 178.182,68.713 177.940 C 68.633 177.698,68.239 178.227,67.838 179.115 M148.837 179.800 C 148.823 180.020,149.067 181.010,149.379 182.000 C 149.691 182.990,149.945 183.440,149.943 183.000 C 149.939 182.166,148.879 179.100,148.837 179.800 M66.264 183.799 C 65.859 184.780,65.620 185.812,65.732 186.092 C 65.856 186.398,65.949 186.314,65.968 185.880 C 65.986 185.484,66.281 184.617,66.624 183.953 C 66.968 183.289,67.193 182.581,67.124 182.380 C 67.056 182.179,66.669 182.817,66.264 183.799 M163.029 183.943 C 162.683 184.612,162.418 185.574,162.441 186.080 C 162.472 186.777,162.557 186.685,162.790 185.702 C 162.959 184.989,163.327 184.129,163.606 183.793 C 163.885 183.456,164.012 183.078,163.886 182.953 C 163.761 182.828,163.376 183.273,163.029 183.943 M64.885 187.773 C 64.215 189.244,64.278 189.552,65.030 188.479 C 65.376 187.984,65.595 187.384,65.515 187.144 C 65.435 186.905,65.152 187.188,64.885 187.773 M150.437 187.800 C 150.423 188.020,150.667 189.010,150.979 190.000 C 151.291 190.990,151.545 191.440,151.543 191.000 C 151.539 190.166,150.479 187.100,150.437 187.800 M161.630 188.164 C 161.372 188.475,161.055 189.420,160.924 190.264 C 160.794 191.109,160.438 192.295,160.133 192.900 C 159.829 193.505,159.669 194.000,159.779 194.000 C 160.170 194.000,161.200 191.625,161.202 190.720 C 161.204 190.214,161.463 189.305,161.779 188.700 C 162.409 187.492,162.353 187.292,161.630 188.164 M63.072 193.019 C 62.702 193.793,62.404 194.646,62.409 194.914 C 62.414 195.181,62.777 194.608,63.216 193.640 C 64.167 191.544,64.039 190.991,63.072 193.019 M151.789 194.000 C 151.902 194.770,152.268 196.300,152.604 197.400 C 153.051 198.864,153.160 199.025,153.011 198.000 C 152.898 197.230,152.532 195.700,152.196 194.600 C 151.749 193.136,151.640 192.975,151.789 194.000 M159.246 195.120 C 159.221 195.626,158.917 196.588,158.571 197.257 C 158.224 197.927,158.016 198.549,158.108 198.641 C 158.442 198.975,159.672 195.677,159.485 194.949 C 159.328 194.337,159.284 194.368,159.246 195.120 M61.915 196.610 C 61.792 197.045,61.569 197.760,61.420 198.200 C 61.271 198.640,61.442 198.494,61.800 197.876 C 62.158 197.258,62.381 196.542,62.295 196.286 C 62.210 196.030,62.039 196.176,61.915 196.610 M60.065 201.817 C 59.395 203.288,59.523 203.602,60.247 202.265 C 60.586 201.640,60.788 201.054,60.696 200.963 C 60.605 200.871,60.321 201.256,60.065 201.817 M153.631 202.640 C 153.587 203.262,154.439 205.702,154.911 206.305 C 155.500 207.058,156.411 206.140,156.353 204.851 C 156.307 203.838,156.296 203.844,156.049 205.000 C 155.696 206.647,155.124 206.347,154.331 204.097 C 153.963 203.054,153.648 202.398,153.631 202.640 M56.832 211.139 C 56.595 211.584,56.401 212.184,56.402 212.474 C 56.404 212.763,56.677 212.478,57.010 211.840 C 57.342 211.203,57.536 210.602,57.440 210.506 C 57.343 210.410,57.070 210.695,56.832 211.139 M55.759 214.475 C 55.517 215.204,55.191 216.160,55.036 216.600 C 54.880 217.040,55.134 216.712,55.600 215.872 C 56.067 215.032,56.392 214.075,56.324 213.747 C 56.256 213.418,56.002 213.746,55.759 214.475 M103.000 214.891 C 101.959 215.464,101.605 216.017,101.646 217.000 C 101.674 217.670,101.723 217.644,101.948 216.843 C 102.335 215.460,103.930 214.940,104.180 216.114 C 104.640 218.273,104.762 218.480,104.618 216.852 C 104.432 214.752,104.063 214.305,103.000 214.891 M100.654 219.981 C 100.244 220.830,100.005 221.766,100.122 222.062 C 100.266 222.423,100.347 222.365,100.368 221.886 C 100.386 221.493,100.687 220.734,101.038 220.199 C 101.388 219.664,101.613 219.048,101.538 218.832 C 101.462 218.615,101.064 219.132,100.654 219.981 M197.704 219.884 C 197.431 220.466,197.282 221.015,197.372 221.105 C 197.612 221.346,198.473 219.618,198.326 219.191 C 198.257 218.990,197.977 219.302,197.704 219.884 M53.691 220.500 C 53.010 222.384,53.104 222.894,53.826 221.230 C 54.153 220.477,54.366 219.699,54.301 219.502 C 54.235 219.305,53.960 219.754,53.691 220.500 M105.218 221.620 C 105.227 221.719,105.500 222.700,105.824 223.800 L 106.414 225.800 106.186 224.000 C 106.061 223.010,105.788 222.029,105.580 221.820 C 105.371 221.611,105.208 221.521,105.218 221.620 M52.300 224.511 C 51.338 226.844,51.432 227.410,52.420 225.232 C 52.861 224.260,53.172 223.318,53.111 223.139 C 53.050 222.960,52.685 223.578,52.300 224.511 M99.079 224.774 C 98.706 225.406,98.418 226.346,98.441 226.862 C 98.473 227.595,98.549 227.516,98.790 226.502 C 98.959 225.789,99.327 224.929,99.606 224.593 C 99.885 224.256,100.034 223.901,99.936 223.803 C 99.838 223.705,99.452 224.142,99.079 224.774 M196.100 224.693 C 195.388 226.211,195.484 226.833,196.213 225.433 C 196.548 224.791,196.772 224.122,196.711 223.946 C 196.650 223.770,196.375 224.106,196.100 224.693 M106.414 227.692 C 106.406 228.072,106.659 229.062,106.976 229.892 C 107.293 230.721,107.632 231.760,107.730 232.200 C 107.904 232.986,107.908 232.986,107.954 232.185 C 107.979 231.736,107.646 230.386,107.214 229.185 C 106.782 227.983,106.422 227.311,106.414 227.692 M194.793 228.672 C 193.893 231.007,193.895 231.129,194.807 229.472 C 195.270 228.631,195.588 227.764,195.515 227.544 C 195.441 227.324,195.116 227.831,194.793 228.672 M97.418 229.561 C 97.028 230.424,96.806 231.371,96.923 231.665 C 97.065 232.019,97.148 231.956,97.168 231.480 C 97.186 231.084,97.483 230.212,97.829 229.543 C 98.176 228.873,98.384 228.251,98.292 228.159 C 98.200 228.067,97.807 228.698,97.418 229.561 M192.885 234.013 C 192.618 234.440,192.401 235.017,192.402 235.295 C 192.404 235.573,192.677 235.278,193.010 234.640 C 193.703 233.311,193.611 232.850,192.885 234.013 M108.634 237.200 C 108.768 237.750,109.018 238.920,109.189 239.800 L 109.500 241.400 109.532 240.000 C 109.550 239.230,109.300 238.060,108.978 237.400 C 108.484 236.390,108.430 236.358,108.634 237.200 M47.472 238.619 C 47.102 239.393,46.804 240.246,46.809 240.514 C 46.814 240.781,47.177 240.208,47.616 239.240 C 48.567 237.144,48.439 236.591,47.472 238.619 M92.865 243.017 C 92.195 244.488,92.323 244.802,93.047 243.465 C 93.386 242.840,93.588 242.254,93.496 242.163 C 93.405 242.071,93.121 242.456,92.865 243.017 M109.614 242.474 C 109.606 242.845,109.807 243.655,110.059 244.274 C 110.311 244.893,110.649 246.120,110.809 247.000 C 111.067 248.419,111.106 248.463,111.150 247.385 C 111.177 246.716,110.846 245.186,110.414 243.985 C 109.982 242.783,109.622 242.103,109.614 242.474 M189.589 243.621 C 189.347 244.072,189.206 244.714,189.275 245.046 C 189.344 245.379,189.598 245.009,189.840 244.225 C 190.335 242.623,190.242 242.400,189.589 243.621 M91.265 247.817 C 90.595 249.288,90.723 249.602,91.447 248.265 C 91.786 247.640,91.988 247.054,91.896 246.963 C 91.805 246.871,91.521 247.256,91.265 247.817 M111.248 249.800 C 111.264 250.777,112.329 253.642,112.364 252.800 C 112.377 252.470,112.129 251.480,111.812 250.600 C 111.495 249.720,111.241 249.360,111.248 249.800 M42.865 252.217 C 42.195 253.688,42.323 254.002,43.047 252.665 C 43.386 252.040,43.588 251.454,43.496 251.363 C 43.405 251.271,43.121 251.656,42.865 252.217 M186.624 252.747 C 186.238 253.602,186.009 254.639,186.115 255.051 C 186.272 255.663,186.316 255.632,186.354 254.880 C 186.379 254.374,186.683 253.412,187.029 252.743 C 187.376 252.073,187.584 251.451,187.492 251.359 C 187.400 251.267,187.010 251.892,186.624 252.747 M112.501 255.000 C 112.505 255.880,112.587 256.193,112.683 255.695 C 112.779 255.198,112.775 254.478,112.675 254.095 C 112.575 253.713,112.496 254.120,112.501 255.000 M88.393 256.272 C 87.493 258.607,87.495 258.729,88.407 257.072 C 88.870 256.231,89.188 255.364,89.115 255.144 C 89.041 254.924,88.716 255.431,88.393 256.272 M112.826 257.274 C 112.812 257.645,112.997 258.455,113.238 259.074 C 113.479 259.693,113.818 261.010,113.991 262.000 C 114.282 263.661,114.307 263.692,114.326 262.400 C 114.347 261.009,112.877 255.986,112.826 257.274 M87.115 260.210 C 86.992 260.645,86.769 261.360,86.620 261.800 C 86.471 262.240,86.642 262.094,87.000 261.476 C 87.358 260.858,87.581 260.142,87.495 259.886 C 87.410 259.630,87.239 259.776,87.115 260.210 M85.300 265.700 C 84.870 266.875,84.880 266.926,85.412 266.224 C 85.921 265.552,86.221 264.400,85.888 264.400 C 85.826 264.400,85.561 264.985,85.300 265.700 M114.416 264.926 C 114.407 265.326,114.598 266.023,114.840 266.475 C 115.082 266.927,115.436 268.130,115.627 269.149 L 115.973 271.000 115.814 269.000 C 115.656 267.021,114.446 263.497,114.416 264.926 M83.915 269.410 C 83.792 269.845,83.569 270.560,83.420 271.000 C 83.271 271.440,83.442 271.294,83.800 270.676 C 84.158 270.058,84.381 269.342,84.295 269.086 C 84.210 268.830,84.039 268.976,83.915 269.410 M36.485 270.813 C 36.218 271.240,36.001 271.817,36.002 272.095 C 36.004 272.373,36.277 272.078,36.610 271.440 C 37.303 270.111,37.211 269.650,36.485 270.813 M116.169 272.200 C 116.392 274.027,117.176 277.863,118.009 281.200 C 118.421 282.850,118.876 285.100,119.019 286.200 C 119.162 287.300,119.465 288.547,119.692 288.972 C 119.919 289.396,120.254 290.656,120.436 291.772 C 120.757 293.738,120.762 293.723,120.588 291.282 C 120.489 289.896,120.210 288.393,119.968 287.941 C 119.726 287.488,119.360 285.922,119.155 284.459 C 118.950 282.997,118.535 281.080,118.232 280.200 C 117.930 279.320,117.499 277.520,117.275 276.200 C 116.786 273.324,115.926 270.215,116.169 272.200 M82.065 275.017 C 81.395 276.488,81.523 276.802,82.247 275.465 C 82.586 274.840,82.788 274.254,82.696 274.163 C 82.605 274.071,82.321 274.456,82.065 275.017 M32.069 283.913 C 31.131 285.834,31.091 286.236,31.977 284.858 C 32.451 284.120,32.785 283.361,32.719 283.171 C 32.654 282.982,32.361 283.315,32.069 283.913 M176.100 284.100 C 175.670 285.275,175.680 285.326,176.212 284.624 C 176.721 283.952,177.021 282.800,176.688 282.800 C 176.626 282.800,176.361 283.385,176.100 284.100 M120.951 295.200 C 121.056 295.750,121.326 296.920,121.551 297.800 C 121.777 298.680,122.073 300.271,122.211 301.337 C 122.348 302.402,122.535 303.198,122.627 303.106 C 122.981 302.752,121.929 296.221,121.360 295.237 L 120.760 294.200 120.951 295.200 M27.300 298.100 C 26.870 299.275,26.880 299.326,27.412 298.624 C 27.921 297.952,28.221 296.800,27.888 296.800 C 27.826 296.800,27.561 297.385,27.300 298.100 M170.432 300.442 C 170.414 300.796,169.733 301.966,168.918 303.042 C 168.103 304.119,167.722 304.771,168.070 304.491 C 169.179 303.600,170.888 300.860,170.672 300.321 C 170.528 299.961,170.453 299.998,170.432 300.442 M67.200 307.000 C 66.455 307.550,66.015 307.994,66.222 307.986 C 66.624 307.970,69.155 306.005,68.778 306.002 C 68.655 306.001,67.945 306.450,67.200 307.000 M32.315 308.872 C 32.692 309.021,39.480 309.144,47.400 309.144 C 55.320 309.144,62.108 309.021,62.485 308.872 C 62.862 308.722,56.074 308.600,47.400 308.600 C 38.726 308.600,31.938 308.722,32.315 308.872 M129.116 308.872 C 129.989 309.219,158.289 309.208,159.525 308.860 C 160.033 308.717,153.245 308.600,144.440 308.600 C 135.635 308.600,128.739 308.722,129.116 308.872 " stroke="none" fill="#faa620" fill-rule="evenodd"></path></g></svg>