<svg width="64" height="64" xmlns="http://www.w3.org/2000/svg">

 <g>
  <title>background</title>
  <rect fill="none" id="canvas_background" height="402" width="582" y="-1" x="-1"/>
 </g>
 <g>
  <title>Layer 1</title>
  <rect id="svg_2" fill="#000000" y="6" x="53" width="2" height="16"/>
  <path id="svg_3" fill="#000000" d="m41,22.146789c0,-2.273 -1.524,-4.364 -4.105,-5.671l-1.987,-10.926l-4.908,-3.272l0,1.519l-3.957,4.946l-0.971,7.768c-2.553,1.308 -4.072,3.375 -4.072,5.636c0,1.832 0.965,3.473 2.555,4.708c-1.326,2.89 -4.555,10.613 -4.555,17.292c0,5.964 2.086,12.814 3.33,16.366c0.551,1.575 2.047,2.634 3.723,2.634c2.176,0 3.947,-1.771 3.947,-3.947l0,-0.566c0,-0.424 -0.068,-0.844 -0.203,-1.249c-0.467,-1.401 -2.797,-8.619 -2.797,-13.238c0,-7.312 2.755,-13.322 3.612,-15.013c0.13,0.003 0.257,0.013 0.388,0.013c0.132,0 0.259,-0.01 0.389,-0.013c0.857,1.688 3.611,7.681 3.611,15.013c0,4.619 -2.33,11.837 -2.797,13.238c-0.135,0.404 -0.203,0.824 -0.203,1.248l0,0.566c0,2.177 1.771,3.948 3.947,3.948c1.675,0 3.172,-1.059 3.723,-2.634c1.244,-3.552 3.33,-10.402 3.33,-16.366c0,-6.679 -3.229,-14.402 -4.555,-17.292c1.59,-1.235 2.555,-2.876 2.555,-4.708zm-7.908,-15.403l1.913,10.504l0.053,0.584l0.084,0.037l-1.871,2.339c-0.338,-0.395 -0.771,-0.699 -1.27,-0.877l0,-13.315l1.091,0.728zm-1.092,15.403c0,0.551 -0.449,1 -1,1s-1,-0.449 -1,-1s0.449,-1 1,-1s1,0.449 1,1zm-4.043,-12.596l2.043,-2.553l0,12.334c-0.42,0.15 -0.801,0.38 -1.111,0.687l-1.854,-3.09l0.922,-7.378zm-2.957,34.596c0,4.804 2.22,11.832 2.9,13.87c0.066,0.2 0.1,0.407 0.1,0.616l0,0.566c0,1.074 -0.874,1.948 -1.947,1.948c-0.827,0 -1.564,-0.521 -1.835,-1.295c-1.202,-3.432 -3.218,-10.036 -3.218,-15.705c0,-1.617 0.218,-3.318 0.553,-5l2.447,0l0,-2l-1.994,0c0.172,-0.679 0.355,-1.349 0.551,-2l2.443,0l0,-2l-1.793,0c0.242,-0.704 0.486,-1.377 0.725,-2l2.068,0l0,-2l-1.262,0c0.201,-0.475 0.378,-0.875 0.538,-1.23c0.956,0.46 2.038,0.801 3.207,1.006c-1.165,2.453 -3.483,8.211 -3.483,15.224zm-2,-22c0,-1.395 0.968,-2.728 2.627,-3.679l2.407,4.012c0.168,1.496 1.426,2.667 2.966,2.667c1.517,0 2.761,-1.135 2.959,-2.599l2.977,-3.721c1.311,0.914 2.064,2.093 2.064,3.32c0,2.71 -3.664,5 -8,5s-8,-2.29 -8,-5zm14.262,7l-1.262,0l0,2l2.068,0c0.239,0.623 0.483,1.296 0.725,2l-1.793,0l0,2l2.443,0c0.196,0.651 0.379,1.321 0.551,2l-1.994,0l0,2l2.447,0c0.335,1.682 0.553,3.383 0.553,5c0,5.669 -2.016,12.273 -3.217,15.705c-0.271,0.774 -1.009,1.295 -1.836,1.295c-1.073,0 -1.947,-0.874 -1.947,-1.947l0,-0.566c0,-0.209 0.034,-0.417 0.1,-0.616c0.68,-2.039 2.9,-9.067 2.9,-13.871c0,-7.013 -2.318,-12.771 -3.483,-15.224c1.169,-0.205 2.252,-0.546 3.207,-1.006c0.16,0.355 0.337,0.755 0.538,1.23z"/>
  <path id="svg_4" fill="#000000" d="m59,26l0,-18.686c0,-3.481 -3.14,-6.314 -7,-6.314s-7,2.833 -7,6.314l0,18.686c-2.206,0 -4,1.794 -4,4s1.794,4 4,4l4,0l0,29l6,0l0,-29l4,0c2.206,0 4,-1.794 4,-4s-1.794,-4 -4,-4zm-7,-23c2.757,0 5,1.936 5,4.314l0,18.686l-2,0l0,-2l-2,0l0,2l-2,0l0,-20l-2,0l0,20l-2,0l0,-18.686c0,-2.378 2.243,-4.314 5,-4.314zm1,58l-2,0l0,-27l2,0l0,27zm6,-29l-4,0l-6,0l-4,0c-1.103,0 -2,-0.897 -2,-2s0.897,-2 2,-2l1,0l1,0l10,0l1,0l1,0c1.103,0 2,0.897 2,2s-0.897,2 -2,2z"/>
  <path id="svg_5" fill="#000000" d="m16,48.76l0,-29.109c3.1,-1.787 5,-5.047 5,-8.651c0,-4.229 -2.677,-8.019 -6.663,-9.429l-1.333,-0.472l-0.004,8.901l-4,0l0,-8.902l-1.333,0.471c-3.988,1.41 -6.667,5.2 -6.667,9.431c0,3.604 1.9,6.864 5,8.651l0,29.109c-1.888,1.514 -3,3.809 -3,6.24c0,4.14 3.232,7.64 7.338,7.967c0.218,0.022 0.438,0.033 0.662,0.033s0.444,-0.011 0.642,-0.031c4.126,-0.329 7.358,-3.829 7.358,-7.969c0,-2.431 -1.112,-4.726 -3,-6.24zm-4.537,12.217c-0.305,0.03 -0.601,0.032 -0.946,-0.002c-3.094,-0.247 -5.517,-2.871 -5.517,-5.975c0,-1.956 0.962,-3.795 2.573,-4.92l0.427,-0.299l0,-31.347l-0.554,-0.276c-2.742,-1.365 -4.446,-4.108 -4.446,-7.158c0,-2.889 1.56,-5.52 4,-6.931l0,5.931c0,1.103 0.897,2 2,2l4,0c1.103,0 2,-0.897 2,-2l0.003,-5.929c2.438,1.411 3.997,4.042 3.997,6.929c0,3.05 -1.704,5.793 -4.446,7.158l-0.554,0.276l0,31.347l0.427,0.298c1.611,1.126 2.573,2.965 2.573,4.921c0,3.104 -2.423,5.728 -5.537,5.977z"/>
  <path id="svg_6" fill="#000000" d="m11,51c-2.206,0 -4,1.794 -4,4s1.794,4 4,4s4,-1.794 4,-4s-1.794,-4 -4,-4zm0,6c-1.103,0 -2,-0.897 -2,-2s0.897,-2 2,-2s2,0.897 2,2s-0.897,2 -2,2z"/>
 </g>
</svg>